G04*
G04 #@! TF.GenerationSoftware,Altium Limited,Altium Designer,23.6.0 (18)*
G04*
G04 Layer_Color=65535*
%FSLAX44Y44*%
%MOMM*%
G71*
G04*
G04 #@! TF.SameCoordinates,7898EC2A-0A59-48EF-961D-189EECB35E8C*
G04*
G04*
G04 #@! TF.FilePolarity,Positive*
G04*
G01*
G75*
%ADD10C,0.1000*%
%ADD11C,0.2000*%
%ADD12C,0.1270*%
%ADD13C,0.2540*%
D10*
X913600Y735200D02*
G03*
X913600Y736200I0J500D01*
G01*
D02*
G03*
X913600Y735200I0J-500D01*
G01*
X982265Y218482D02*
G03*
X1024308Y218519I21035J-15282D01*
G01*
X383800Y129000D02*
G03*
X384800Y129000I500J0D01*
G01*
D02*
G03*
X383800Y129000I-500J0D01*
G01*
X460000D02*
G03*
X461000Y129000I500J0D01*
G01*
D02*
G03*
X460000Y129000I-500J0D01*
G01*
X1402800Y655000D02*
G03*
X1492800Y655000I45000J0D01*
G01*
D02*
G03*
X1402800Y655000I-45000J0D01*
G01*
X1464866Y523282D02*
G03*
X1506908Y523319I21035J-15282D01*
G01*
X53600Y941800D02*
G03*
X54600Y941800I500J0D01*
G01*
D02*
G03*
X53600Y941800I-500J0D01*
G01*
X127400Y843000D02*
Y873000D01*
X37400D02*
X127400D01*
X37400Y843000D02*
Y873000D01*
Y725000D02*
Y743000D01*
Y725000D02*
X127400D01*
Y743000D01*
X1387800Y190200D02*
X1432800D01*
X1387800D02*
Y215200D01*
X1462800Y190200D02*
X1507800D01*
Y215200D01*
Y240200D02*
Y320200D01*
X1407800Y340200D02*
X1487800D01*
X1387800Y240200D02*
Y320200D01*
X982279Y218500D02*
X1024322D01*
X1464879Y523300D02*
X1506922D01*
X114970Y482453D02*
X234969D01*
X114970Y50653D02*
X234969D01*
X263869Y76553D02*
Y456553D01*
X86069Y76553D02*
Y456553D01*
D11*
X156400Y824000D02*
G03*
X156400Y822000I0J-1000D01*
G01*
D02*
G03*
X156400Y824000I0J1000D01*
G01*
X215300Y609600D02*
G03*
X215300Y609600I-62500J0D01*
G01*
X419100Y156000D02*
G03*
X419100Y98000I0J-29000D01*
G01*
D02*
G03*
X419100Y156000I0J29000D01*
G01*
X495300D02*
G03*
X495300Y98000I0J-29000D01*
G01*
D02*
G03*
X495300Y156000I0J29000D01*
G01*
X316100Y914400D02*
G03*
X316100Y914400I-62500J0D01*
G01*
X88900Y968800D02*
G03*
X88900Y910800I0J-29000D01*
G01*
D02*
G03*
X88900Y968800I0J29000D01*
G01*
X1217700Y903600D02*
G03*
X1217700Y903600I-1000J0D01*
G01*
X520100Y914400D02*
G03*
X520100Y914400I-62500J0D01*
G01*
X1345800Y290200D02*
Y730200D01*
X505800D02*
X1345800D01*
X505800Y290200D02*
Y730200D01*
Y290200D02*
X1345800D01*
X851650Y809950D02*
Y913050D01*
X875550D01*
Y809950D02*
Y913050D01*
X851650Y809950D02*
X875550D01*
X863600Y771250D02*
Y809950D01*
Y913050D02*
Y951750D01*
X298700Y688400D02*
X345700D01*
X298700Y581700D02*
Y688400D01*
Y581700D02*
X330200D01*
X775450Y73350D02*
Y176450D01*
X799350D01*
Y73350D02*
Y176450D01*
X775450Y73350D02*
X799350D01*
X787400Y34650D02*
Y73350D01*
Y176450D02*
Y215150D01*
X699250Y73350D02*
Y176450D01*
X723150D01*
Y73350D02*
Y176450D01*
X699250Y73350D02*
X723150D01*
X711200Y34650D02*
Y73350D01*
Y176450D02*
Y215150D01*
X1304700Y24800D02*
Y126800D01*
X1374640D01*
X1372140Y132800D02*
X1374640Y126800D01*
X1372140Y132800D02*
X1384140D01*
X1381700Y126800D02*
X1384140Y132800D01*
X1381700Y126800D02*
X1387700D01*
Y24800D02*
Y126800D01*
X1331760Y24800D02*
X1387700D01*
X1331760D02*
X1334260Y18800D01*
X1322260D02*
X1334260D01*
X1322260D02*
X1324700Y24800D01*
X1304700D02*
X1324700D01*
X1203100D02*
Y126800D01*
X1273040D01*
X1270540Y132800D02*
X1273040Y126800D01*
X1270540Y132800D02*
X1282540D01*
X1280100Y126800D02*
X1282540Y132800D01*
X1280100Y126800D02*
X1286100D01*
Y24800D02*
Y126800D01*
X1230160Y24800D02*
X1286100D01*
X1230160D02*
X1232660Y18800D01*
X1220660D02*
X1232660D01*
X1220660D02*
X1223100Y24800D01*
X1203100D02*
X1223100D01*
X1101500D02*
Y126800D01*
X1171440D01*
X1168940Y132800D02*
X1171440Y126800D01*
X1168940Y132800D02*
X1180940D01*
X1178500Y126800D02*
X1180940Y132800D01*
X1178500Y126800D02*
X1184500D01*
Y24800D02*
Y126800D01*
X1128560Y24800D02*
X1184500D01*
X1128560D02*
X1131060Y18800D01*
X1119060D02*
X1131060D01*
X1119060D02*
X1121500Y24800D01*
X1101500D02*
X1121500D01*
X623050Y73350D02*
Y176450D01*
X646950D01*
Y73350D02*
Y176450D01*
X623050Y73350D02*
X646950D01*
X635000Y34650D02*
Y73350D01*
Y176450D02*
Y215150D01*
X851650Y73350D02*
Y176450D01*
X875550D01*
Y73350D02*
Y176450D01*
X851650Y73350D02*
X875550D01*
X863600Y34650D02*
Y73350D01*
Y176450D02*
Y215150D01*
X699250Y809950D02*
Y913050D01*
X723150D01*
Y809950D02*
Y913050D01*
X699250Y809950D02*
X723150D01*
X711200Y771250D02*
Y809950D01*
Y913050D02*
Y951750D01*
X953250Y809950D02*
Y913050D01*
X977150D01*
Y809950D02*
Y913050D01*
X953250Y809950D02*
X977150D01*
X965200Y771250D02*
Y809950D01*
Y913050D02*
Y951750D01*
X775450Y809950D02*
Y913050D01*
X799350D01*
Y809950D02*
Y913050D01*
X775450Y809950D02*
X799350D01*
X787400Y771250D02*
Y809950D01*
Y913050D02*
Y951750D01*
X574850Y914800D02*
X590100D01*
X593600Y864500D02*
Y913500D01*
Y864500D02*
X625600D01*
Y913500D01*
X593600D02*
X625600D01*
X400300Y662900D02*
X447300D01*
X400300Y556200D02*
Y662900D01*
Y556200D02*
X431800D01*
X211600Y785500D02*
X245600D01*
Y738500D02*
Y785500D01*
X211600Y738500D02*
X245600D01*
X211600D02*
Y785500D01*
X189600Y782500D02*
X208100D01*
D12*
X1382700Y863600D02*
G03*
X1382700Y863600I-84000J0D01*
G01*
D13*
X497840Y763519D02*
Y748284D01*
X505457D01*
X507997Y750823D01*
Y760980D01*
X505457Y763519D01*
X497840D01*
X523232Y760980D02*
X520693Y763519D01*
X515614D01*
X513075Y760980D01*
Y758441D01*
X515614Y755901D01*
X520693D01*
X523232Y753362D01*
Y750823D01*
X520693Y748284D01*
X515614D01*
X513075Y750823D01*
X528310Y748284D02*
X533388D01*
X530849D01*
Y763519D01*
X528310Y760980D01*
X774192Y240538D02*
Y255773D01*
X781809D01*
X784349Y253234D01*
Y248155D01*
X781809Y245616D01*
X774192D01*
X779270D02*
X784349Y240538D01*
X789427Y253234D02*
X791966Y255773D01*
X797045D01*
X799584Y253234D01*
Y250695D01*
X797045Y248155D01*
X799584Y245616D01*
Y243077D01*
X797045Y240538D01*
X791966D01*
X789427Y243077D01*
Y245616D01*
X791966Y248155D01*
X789427Y250695D01*
Y253234D01*
X791966Y248155D02*
X797045D01*
X697992Y240538D02*
Y255773D01*
X705610D01*
X708149Y253234D01*
Y248155D01*
X705610Y245616D01*
X697992D01*
X703070D02*
X708149Y240538D01*
X713227D02*
X718305D01*
X715766D01*
Y255773D01*
X713227Y253234D01*
X725923D02*
X728462Y255773D01*
X733540D01*
X736080Y253234D01*
Y243077D01*
X733540Y240538D01*
X728462D01*
X725923Y243077D01*
Y253234D01*
X621792Y240538D02*
Y255773D01*
X629409D01*
X631949Y253234D01*
Y248155D01*
X629409Y245616D01*
X621792D01*
X626870D02*
X631949Y240538D01*
X637027Y255773D02*
X647184D01*
Y253234D01*
X637027Y243077D01*
Y240538D01*
X989073Y230123D02*
Y240280D01*
X986534Y242819D01*
X981455D01*
X978916Y240280D01*
Y230123D01*
X981455Y227584D01*
X986534D01*
X983994Y232662D02*
X989073Y227584D01*
X986534D02*
X989073Y230123D01*
X994151Y240280D02*
X996690Y242819D01*
X1001769D01*
X1004308Y240280D01*
Y237741D01*
X999229Y232662D01*
Y230123D02*
Y227584D01*
X382016Y189479D02*
Y174244D01*
X392173D01*
X407408Y189479D02*
X397251D01*
Y174244D01*
X407408D01*
X397251Y181861D02*
X402329D01*
X412486Y189479D02*
Y174244D01*
X420104D01*
X422643Y176783D01*
Y186940D01*
X420104Y189479D01*
X412486D01*
X427721Y186940D02*
X430260Y189479D01*
X435339D01*
X437878Y186940D01*
Y184401D01*
X435339Y181861D01*
X432800D01*
X435339D01*
X437878Y179322D01*
Y176783D01*
X435339Y174244D01*
X430260D01*
X427721Y176783D01*
X458216Y189479D02*
Y174244D01*
X468373D01*
X483608Y189479D02*
X473451D01*
Y174244D01*
X483608D01*
X473451Y181861D02*
X478529D01*
X488686Y189479D02*
Y174244D01*
X496304D01*
X498843Y176783D01*
Y186940D01*
X496304Y189479D01*
X488686D01*
X514078Y174244D02*
X503921D01*
X514078Y184401D01*
Y186940D01*
X511539Y189479D01*
X506460D01*
X503921Y186940D01*
X1378712Y374899D02*
Y359664D01*
Y364742D01*
X1388869Y374899D01*
X1381251Y367281D01*
X1388869Y359664D01*
X1393947Y372360D02*
X1396486Y374899D01*
X1401565D01*
X1404104Y372360D01*
Y369821D01*
X1399025Y364742D01*
Y362203D02*
Y359664D01*
X1315463Y157729D02*
X1310384D01*
X1312923D01*
Y145033D01*
X1310384Y142494D01*
X1307845D01*
X1305306Y145033D01*
X1320541Y155190D02*
X1323080Y157729D01*
X1328159D01*
X1330698Y155190D01*
Y152651D01*
X1328159Y150112D01*
X1325619D01*
X1328159D01*
X1330698Y147572D01*
Y145033D01*
X1328159Y142494D01*
X1323080D01*
X1320541Y145033D01*
X1213863Y157729D02*
X1208784D01*
X1211323D01*
Y145033D01*
X1208784Y142494D01*
X1206245D01*
X1203706Y145033D01*
X1229098Y142494D02*
X1218941D01*
X1229098Y152651D01*
Y155190D01*
X1226559Y157729D01*
X1221480D01*
X1218941Y155190D01*
X1112263Y157729D02*
X1107184D01*
X1109724D01*
Y145033D01*
X1107184Y142494D01*
X1104645D01*
X1102106Y145033D01*
X1124959Y142494D02*
Y157729D01*
X1117341Y150112D01*
X1127498D01*
X298450Y713989D02*
X303528D01*
X300989D01*
Y698754D01*
X298450D01*
X303528D01*
X321303Y711450D02*
X318763Y713989D01*
X313685D01*
X311146Y711450D01*
Y701293D01*
X313685Y698754D01*
X318763D01*
X321303Y701293D01*
X326381Y711450D02*
X328920Y713989D01*
X333998D01*
X336538Y711450D01*
Y708911D01*
X331459Y703832D01*
Y701293D02*
Y698754D01*
X97787Y697734D02*
X95247Y700273D01*
X90169D01*
X87630Y697734D01*
Y687577D01*
X90169Y685038D01*
X95247D01*
X97787Y687577D01*
X102865Y697734D02*
X105404Y700273D01*
X110483D01*
X113022Y697734D01*
Y695195D01*
X110483Y692655D01*
X107943D01*
X110483D01*
X113022Y690116D01*
Y687577D01*
X110483Y685038D01*
X105404D01*
X102865Y687577D01*
X850392Y240538D02*
Y255773D01*
X858009D01*
X860549Y253234D01*
Y248155D01*
X858009Y245616D01*
X850392D01*
X855470D02*
X860549Y240538D01*
X875784Y255773D02*
X870705Y253234D01*
X865627Y248155D01*
Y243077D01*
X868166Y240538D01*
X873245D01*
X875784Y243077D01*
Y245616D01*
X873245Y248155D01*
X865627D01*
X951992Y977138D02*
Y992373D01*
X959610D01*
X962149Y989834D01*
Y984755D01*
X959610Y982216D01*
X951992D01*
X957070D02*
X962149Y977138D01*
X977384Y992373D02*
X967227D01*
Y984755D01*
X972305Y987295D01*
X974845D01*
X977384Y984755D01*
Y979677D01*
X974845Y977138D01*
X969766D01*
X967227Y979677D01*
X697992Y977138D02*
Y992373D01*
X705610D01*
X708149Y989834D01*
Y984755D01*
X705610Y982216D01*
X697992D01*
X703070D02*
X708149Y977138D01*
X720845D02*
Y992373D01*
X713227Y984755D01*
X723384D01*
X1471673Y534923D02*
Y545080D01*
X1469133Y547619D01*
X1464055D01*
X1461516Y545080D01*
Y534923D01*
X1464055Y532384D01*
X1469133D01*
X1466594Y537462D02*
X1471673Y532384D01*
X1469133D02*
X1471673Y534923D01*
X1484369Y532384D02*
Y547619D01*
X1476751Y540001D01*
X1486908D01*
X1399794Y728467D02*
Y713232D01*
X1409951D01*
X1425186Y725928D02*
X1422647Y728467D01*
X1417568D01*
X1415029Y725928D01*
Y723389D01*
X1417568Y720850D01*
X1422647D01*
X1425186Y718310D01*
Y715771D01*
X1422647Y713232D01*
X1417568D01*
X1415029Y715771D01*
X1430264Y713232D02*
X1435343D01*
X1432803D01*
Y728467D01*
X1430264Y725928D01*
X51816Y1002279D02*
Y987044D01*
X61973D01*
X77208Y1002279D02*
X67051D01*
Y987044D01*
X77208D01*
X67051Y994661D02*
X72129D01*
X82286Y1002279D02*
Y987044D01*
X89904D01*
X92443Y989583D01*
Y999740D01*
X89904Y1002279D01*
X82286D01*
X97521Y987044D02*
X102600D01*
X100060D01*
Y1002279D01*
X97521Y999740D01*
X1214374Y958088D02*
Y968245D01*
X1219452Y973323D01*
X1224531Y968245D01*
Y958088D01*
Y965705D01*
X1214374D01*
X1229609Y970784D02*
X1232148Y973323D01*
X1237227D01*
X1239766Y970784D01*
Y968245D01*
X1237227Y965705D01*
X1234687D01*
X1237227D01*
X1239766Y963166D01*
Y960627D01*
X1237227Y958088D01*
X1232148D01*
X1229609Y960627D01*
X850392Y977138D02*
Y992373D01*
X858009D01*
X860549Y989834D01*
Y984755D01*
X858009Y982216D01*
X850392D01*
X855470D02*
X860549Y977138D01*
X865627Y989834D02*
X868166Y992373D01*
X873245D01*
X875784Y989834D01*
Y987295D01*
X873245Y984755D01*
X870705D01*
X873245D01*
X875784Y982216D01*
Y979677D01*
X873245Y977138D01*
X868166D01*
X865627Y979677D01*
X774192Y977138D02*
Y992373D01*
X781809D01*
X784349Y989834D01*
Y984755D01*
X781809Y982216D01*
X774192D01*
X779270D02*
X784349Y977138D01*
X799584D02*
X789427D01*
X799584Y987295D01*
Y989834D01*
X797045Y992373D01*
X791966D01*
X789427Y989834D01*
X15491Y906267D02*
X10412D01*
X12952D01*
Y893571D01*
X10412Y891032D01*
X7873D01*
X5334Y893571D01*
X20569Y891032D02*
X25647D01*
X23108D01*
Y906267D01*
X20569Y903728D01*
X574548Y939541D02*
X579626D01*
X577087D01*
Y924306D01*
X574548D01*
X579626D01*
X597401Y937002D02*
X594861Y939541D01*
X589783D01*
X587244Y937002D01*
Y926845D01*
X589783Y924306D01*
X594861D01*
X597401Y926845D01*
X602479Y937002D02*
X605018Y939541D01*
X610097D01*
X612636Y937002D01*
Y934463D01*
X610097Y931924D01*
X607557D01*
X610097D01*
X612636Y929384D01*
Y926845D01*
X610097Y924306D01*
X605018D01*
X602479Y926845D01*
X78232Y516631D02*
X83310D01*
X80771D01*
Y501396D01*
X78232D01*
X83310D01*
X101085Y514092D02*
X98545Y516631D01*
X93467D01*
X90928Y514092D01*
Y503935D01*
X93467Y501396D01*
X98545D01*
X101085Y503935D01*
X116320Y501396D02*
X106163D01*
X116320Y511553D01*
Y514092D01*
X113780Y516631D01*
X108702D01*
X106163Y514092D01*
X400050Y688589D02*
X405128D01*
X402589D01*
Y673354D01*
X400050D01*
X405128D01*
X422903Y686050D02*
X420363Y688589D01*
X415285D01*
X412746Y686050D01*
Y675893D01*
X415285Y673354D01*
X420363D01*
X422903Y675893D01*
X427981Y673354D02*
X433059D01*
X430520D01*
Y688589D01*
X427981Y686050D01*
X198625Y1002534D02*
X196085Y1005073D01*
X191007D01*
X188468Y1002534D01*
Y992377D01*
X191007Y989838D01*
X196085D01*
X198625Y992377D01*
X213860Y989838D02*
X203703D01*
X213860Y999995D01*
Y1002534D01*
X211321Y1005073D01*
X206242D01*
X203703Y1002534D01*
X402587D02*
X400047Y1005073D01*
X394969D01*
X392430Y1002534D01*
Y992377D01*
X394969Y989838D01*
X400047D01*
X402587Y992377D01*
X407665Y989838D02*
X412743D01*
X410204D01*
Y1005073D01*
X407665Y1002534D01*
X189484Y812033D02*
Y796798D01*
X197101D01*
X199641Y799337D01*
Y801876D01*
X197101Y804416D01*
X189484D01*
X197101D01*
X199641Y806955D01*
Y809494D01*
X197101Y812033D01*
X189484D01*
X204719Y796798D02*
Y812033D01*
X212337D01*
X214876Y809494D01*
Y804416D01*
X212337Y801876D01*
X204719D01*
X209797D02*
X214876Y796798D01*
X219954D02*
X225033D01*
X222493D01*
Y812033D01*
X219954Y809494D01*
M02*
