G04*
G04 #@! TF.GenerationSoftware,Altium Limited,Altium Designer,23.6.0 (18)*
G04*
G04 Layer_Color=8388736*
%FSLAX44Y44*%
%MOMM*%
G71*
G04*
G04 #@! TF.SameCoordinates,7898EC2A-0A59-48EF-961D-189EECB35E8C*
G04*
G04*
G04 #@! TF.FilePolarity,Negative*
G04*
G01*
G75*
%ADD17R,2.6032X3.0032*%
%ADD18R,1.7282X0.8532*%
%ADD19R,2.0532X1.2032*%
%ADD20C,5.2032*%
%ADD21C,2.7032*%
%ADD22C,1.7032*%
%ADD23C,1.7272*%
%ADD24C,1.3532*%
%ADD25C,1.1532*%
%ADD26C,1.0532*%
%ADD27R,2.2582X2.2582*%
%ADD28C,2.2582*%
%ADD29C,2.4532*%
%ADD30R,1.4782X1.4782*%
%ADD31C,1.4782*%
%ADD32C,1.6432*%
%ADD33R,1.7032X1.7032*%
%ADD34C,2.1532*%
%ADD35C,1.6032*%
%ADD36C,2.0032*%
%ADD37R,2.0032X2.0032*%
%ADD38R,1.8682X1.8682*%
%ADD39C,1.8682*%
%ADD40C,2.6782*%
%ADD41C,1.4732*%
D17*
X139400Y762000D02*
D03*
X25400D02*
D03*
Y822200D02*
D03*
X139400Y823000D02*
D03*
D18*
X636720Y908050D02*
D03*
Y895350D02*
D03*
Y882650D02*
D03*
Y869950D02*
D03*
X582480D02*
D03*
Y882650D02*
D03*
Y895350D02*
D03*
Y908050D02*
D03*
D19*
X198850Y774000D02*
D03*
Y750000D02*
D03*
X258350D02*
D03*
Y774000D02*
D03*
D20*
X545800Y690200D02*
D03*
X1305800D02*
D03*
D21*
X530800Y330200D02*
D03*
X1320800D02*
D03*
D22*
X888200Y710200D02*
D03*
X862800D02*
D03*
X1243800D02*
D03*
X1218400D02*
D03*
X1193000D02*
D03*
X1167600D02*
D03*
X1142200D02*
D03*
X1116800D02*
D03*
X1091400D02*
D03*
X1066000D02*
D03*
X1040600D02*
D03*
X1015200D02*
D03*
X989800D02*
D03*
X964400D02*
D03*
X939000D02*
D03*
X913600D02*
D03*
X431800Y127000D02*
D03*
X508000D02*
D03*
X101600Y939800D02*
D03*
D23*
X1498600Y25400D02*
D03*
X25400D02*
D03*
Y990600D02*
D03*
X1498600D02*
D03*
D24*
X863600Y762000D02*
D03*
Y961000D02*
D03*
X787400Y25400D02*
D03*
Y224400D02*
D03*
X711200Y25400D02*
D03*
Y224400D02*
D03*
X635000Y25400D02*
D03*
Y224400D02*
D03*
X863600Y25400D02*
D03*
Y224400D02*
D03*
X711200Y762000D02*
D03*
Y961000D02*
D03*
X965200Y762000D02*
D03*
Y961000D02*
D03*
X787400Y762000D02*
D03*
Y961000D02*
D03*
D25*
X82400Y778000D02*
D03*
D26*
Y823000D02*
D03*
D27*
X330200Y609700D02*
D03*
X431800Y584200D02*
D03*
D28*
X330200Y635050D02*
D03*
Y660400D02*
D03*
X431800Y609550D02*
D03*
Y634900D02*
D03*
D29*
X1497800Y228200D02*
D03*
Y330200D02*
D03*
X1397800D02*
D03*
Y228200D02*
D03*
X1447800Y203200D02*
D03*
D30*
X127800Y609600D02*
D03*
X228600Y914400D02*
D03*
X432600D02*
D03*
D31*
X177800Y609600D02*
D03*
X278600Y914400D02*
D03*
X482600D02*
D03*
D32*
X1016000Y203200D02*
D03*
X1003300Y190500D02*
D03*
X990600Y203200D02*
D03*
X1498600Y508000D02*
D03*
X1485900Y495300D02*
D03*
X1473200Y508000D02*
D03*
D33*
X406400Y127000D02*
D03*
X482600D02*
D03*
X76200Y939800D02*
D03*
D34*
X1346200Y50800D02*
D03*
X1244600D02*
D03*
X1143000D02*
D03*
D35*
X1447800Y675000D02*
D03*
Y635000D02*
D03*
D36*
X1251200Y863600D02*
D03*
X1346200D02*
D03*
X1332287Y830013D02*
D03*
X1265113D02*
D03*
X1332287Y897187D02*
D03*
D37*
X1265113D02*
D03*
D38*
X98769Y444353D02*
D03*
X251169Y88753D02*
D03*
D39*
X98769Y418953D02*
D03*
Y393553D02*
D03*
Y368153D02*
D03*
Y342753D02*
D03*
Y317353D02*
D03*
Y291953D02*
D03*
Y266553D02*
D03*
Y241153D02*
D03*
Y215753D02*
D03*
Y190353D02*
D03*
Y164953D02*
D03*
Y139553D02*
D03*
Y114153D02*
D03*
Y88753D02*
D03*
X251169Y114153D02*
D03*
Y139553D02*
D03*
Y164953D02*
D03*
Y190353D02*
D03*
Y215753D02*
D03*
Y241153D02*
D03*
Y266553D02*
D03*
Y291953D02*
D03*
Y317353D02*
D03*
Y342753D02*
D03*
Y368153D02*
D03*
Y393553D02*
D03*
Y418953D02*
D03*
Y444353D02*
D03*
D40*
X98769Y469753D02*
D03*
X251169D02*
D03*
Y63353D02*
D03*
X98769D02*
D03*
D41*
X567690Y882650D02*
D03*
X268478Y202946D02*
D03*
Y152146D02*
D03*
M02*
