%FSTAX23Y23*%
%MOIN*%
%SFA1B1*%

%IPPOS*%
%ADD20C,0.204850*%
%ADD21C,0.106425*%
%ADD22C,0.067055*%
%ADD23C,0.068000*%
%ADD24C,0.053275*%
%ADD25C,0.045401*%
%ADD26C,0.041464*%
%ADD27R,0.088905X0.088905*%
%ADD28C,0.088905*%
%ADD29C,0.096582*%
%ADD30R,0.058197X0.058197*%
%ADD31C,0.058197*%
%ADD32C,0.064693*%
%ADD33R,0.067055X0.067055*%
%ADD34C,0.084771*%
%ADD35C,0.063118*%
%ADD36C,0.078866*%
%ADD37R,0.078866X0.078866*%
%ADD38R,0.073551X0.073551*%
%ADD39C,0.073551*%
%ADD40C,0.105441*%
%ADD41C,0.058000*%
%LNpcb1-1*%
%LPD*%
G54D20*
X02148Y02717D03*
X0514D03*
G54D21*
X02089Y013D03*
X052D03*
G54D22*
X03496Y02796D03*
X03396D03*
X04896D03*
X04796D03*
X04696D03*
X04596D03*
X04496D03*
X04396D03*
X04296D03*
X04196D03*
X04096D03*
X03996D03*
X03896D03*
X03796D03*
X03696D03*
X03596D03*
X017Y005D03*
X02D03*
X004Y037D03*
G54D23*
X059Y001D03*
X001D03*
Y039D03*
X059D03*
G54D24*
X034Y03D03*
Y03783D03*
X031Y001D03*
Y00883D03*
X028Y001D03*
Y00883D03*
X025Y001D03*
Y00883D03*
X034Y001D03*
Y00883D03*
X028Y03D03*
Y03783D03*
X038Y03D03*
Y03783D03*
X031Y03D03*
Y03783D03*
G54D25*
X00324Y03062D03*
G54D26*
X00324Y0324D03*
G54D27*
X013Y024D03*
X017Y023D03*
G54D28*
X013Y025D03*
Y026D03*
X017Y02399D03*
Y02499D03*
G54D29*
X05896Y00898D03*
Y013D03*
X05503D03*
Y00898D03*
X057Y008D03*
G54D30*
X00503Y024D03*
X009Y036D03*
X01703D03*
G54D31*
X007Y024D03*
X01096Y036D03*
X019D03*
G54D32*
X04Y008D03*
X0395Y0075D03*
X039Y008D03*
X059Y02D03*
X0585Y0195D03*
X058Y02D03*
G54D33*
X016Y005D03*
X019D03*
X003Y037D03*
G54D34*
X053Y002D03*
X049D03*
X045D03*
G54D35*
X057Y02657D03*
Y025D03*
G54D36*
X04925Y034D03*
X053D03*
X05245Y03267D03*
X0498D03*
X05245Y03532D03*
G54D37*
X0498Y03532D03*
G54D38*
X00388Y01749D03*
X00988Y00349D03*
G54D39*
X00388Y01649D03*
Y01549D03*
Y01449D03*
Y01349D03*
Y01249D03*
Y01149D03*
Y01049D03*
Y00949D03*
Y00849D03*
Y00749D03*
Y00649D03*
Y00549D03*
Y00449D03*
Y00349D03*
X00988Y00449D03*
Y00549D03*
Y00649D03*
Y00749D03*
Y00849D03*
Y00949D03*
Y01049D03*
Y01149D03*
Y01249D03*
Y01349D03*
Y01449D03*
Y01549D03*
Y01649D03*
Y01749D03*
G54D40*
X00388Y01849D03*
X00988D03*
Y00249D03*
X00388D03*
G54D41*
X02235Y03475D03*
X01057Y00799D03*
Y00599D03*
M02*