%FSTAX23Y23*%
%MOIN*%
%SFA1B1*%

%IPPOS*%
%ADD10C,0.003937*%
%ADD11C,0.007874*%
%ADD12C,0.005000*%
%ADD13C,0.010000*%
%LNpcb1-1*%
%LPD*%
G54D10*
X03596Y02894D02*
D01*
X03596Y02894*
X03597Y02894*
X03597Y02894*
X03597Y02894*
X03597Y02894*
X03597Y02894*
X03597Y02894*
X03597Y02894*
X03598Y02894*
X03598Y02894*
X03598Y02895*
X03598Y02895*
X03598Y02895*
X03598Y02895*
X03598Y02895*
X03598Y02895*
X03598Y02895*
X03598Y02895*
X03598Y02895*
X03598Y02896*
X03598Y02896*
X03598Y02896*
Y02896*
X03598Y02896*
X03598Y02896*
X03598Y02896*
X03598Y02897*
X03598Y02897*
X03598Y02897*
X03598Y02897*
X03598Y02897*
X03598Y02897*
X03598Y02897*
X03598Y02897*
X03598Y02897*
X03598Y02898*
X03597Y02898*
X03597Y02898*
X03597Y02898*
X03597Y02898*
X03597Y02898*
X03597Y02898*
X03597Y02898*
X03596Y02898*
X03596Y02898*
D01*
X03596Y02898*
X03596Y02898*
X03596Y02898*
X03596Y02898*
X03596Y02898*
X03596Y02898*
X03595Y02898*
X03595Y02898*
X03595Y02898*
X03595Y02897*
X03595Y02897*
X03595Y02897*
X03595Y02897*
X03595Y02897*
X03595Y02897*
X03595Y02897*
X03595Y02897*
X03594Y02897*
X03594Y02896*
X03594Y02896*
X03594Y02896*
X03594Y02896*
Y02896*
X03594Y02896*
X03594Y02896*
X03594Y02895*
X03594Y02895*
X03595Y02895*
X03595Y02895*
X03595Y02895*
X03595Y02895*
X03595Y02895*
X03595Y02895*
X03595Y02895*
X03595Y02894*
X03595Y02894*
X03595Y02894*
X03595Y02894*
X03596Y02894*
X03596Y02894*
X03596Y02894*
X03596Y02894*
X03596Y02894*
X03596Y02894*
X03596Y02894*
X03867Y0086D02*
D01*
X03863Y00854*
X03859Y00848*
X03856Y00841*
X03853Y00835*
X03851Y00828*
X03849Y00821*
X03848Y00814*
X03847Y00807*
X03847Y00799*
X03847Y00792*
X03848Y00785*
X03849Y00778*
X03851Y00771*
X03853Y00764*
X03856Y00758*
X03859Y00751*
X03863Y00745*
X03867Y00739*
X03871Y00734*
X03876Y00728*
X03881Y00723*
X03886Y00719*
X03892Y00715*
X03898Y00711*
X03905Y00707*
X03911Y00705*
X03918Y00702*
X03925Y007*
X03932Y00699*
X03939Y00698*
X03946Y00697*
X03953*
X0396Y00698*
X03967Y00699*
X03974Y007*
X03981Y00702*
X03988Y00705*
X03994Y00707*
X04001Y00711*
X04007Y00715*
X04013Y00719*
X04018Y00723*
X04023Y00728*
X04028Y00734*
X04032Y00739*
X04036Y00745*
X0404Y00751*
X04043Y00758*
X04046Y00764*
X04048Y00771*
X0405Y00778*
X04051Y00785*
X04052Y00792*
X04052Y008*
X04052Y00807*
X04051Y00814*
X0405Y00821*
X04048Y00828*
X04046Y00835*
X04043Y00841*
X0404Y00848*
X04036Y00854*
X04032Y0086*
X04032Y0086*
X01511Y00507D02*
D01*
X01511Y00507*
X01511Y00507*
X01511Y00507*
X01511Y00507*
X01511Y00507*
X01511Y00507*
X01511Y00506*
X01511Y00506*
X01511Y00506*
X01511Y00506*
X01511Y00506*
X01511Y00506*
X01511Y00506*
X01511Y00506*
X01512Y00506*
X01512Y00506*
X01512Y00506*
X01512Y00506*
X01512Y00505*
X01512Y00505*
X01512Y00505*
X01512Y00505*
X01513*
X01513Y00505*
X01513Y00505*
X01513Y00505*
X01513Y00506*
X01513Y00506*
X01513Y00506*
X01513Y00506*
X01514Y00506*
X01514Y00506*
X01514Y00506*
X01514Y00506*
X01514Y00506*
X01514Y00506*
X01514Y00506*
X01514Y00506*
X01514Y00507*
X01514Y00507*
X01514Y00507*
X01514Y00507*
X01514Y00507*
X01514Y00507*
X01514Y00507*
D01*
X01514Y00508*
X01514Y00508*
X01514Y00508*
X01514Y00508*
X01514Y00508*
X01514Y00508*
X01514Y00508*
X01514Y00508*
X01514Y00509*
X01514Y00509*
X01514Y00509*
X01514Y00509*
X01514Y00509*
X01514Y00509*
X01513Y00509*
X01513Y00509*
X01513Y00509*
X01513Y00509*
X01513Y00509*
X01513Y00509*
X01513Y00509*
X01513Y00509*
X01512*
X01512Y00509*
X01512Y00509*
X01512Y00509*
X01512Y00509*
X01512Y00509*
X01512Y00509*
X01512Y00509*
X01511Y00509*
X01511Y00509*
X01511Y00509*
X01511Y00509*
X01511Y00509*
X01511Y00509*
X01511Y00508*
X01511Y00508*
X01511Y00508*
X01511Y00508*
X01511Y00508*
X01511Y00508*
X01511Y00508*
X01511Y00508*
X01511Y00507*
X01811D02*
D01*
X01811Y00507*
X01811Y00507*
X01811Y00507*
X01811Y00507*
X01811Y00507*
X01811Y00507*
X01811Y00506*
X01811Y00506*
X01811Y00506*
X01811Y00506*
X01811Y00506*
X01811Y00506*
X01811Y00506*
X01811Y00506*
X01812Y00506*
X01812Y00506*
X01812Y00506*
X01812Y00506*
X01812Y00505*
X01812Y00505*
X01812Y00505*
X01812Y00505*
X01813*
X01813Y00505*
X01813Y00505*
X01813Y00505*
X01813Y00506*
X01813Y00506*
X01813Y00506*
X01813Y00506*
X01814Y00506*
X01814Y00506*
X01814Y00506*
X01814Y00506*
X01814Y00506*
X01814Y00506*
X01814Y00506*
X01814Y00506*
X01814Y00507*
X01814Y00507*
X01814Y00507*
X01814Y00507*
X01814Y00507*
X01814Y00507*
X01814Y00507*
D01*
X01814Y00508*
X01814Y00508*
X01814Y00508*
X01814Y00508*
X01814Y00508*
X01814Y00508*
X01814Y00508*
X01814Y00508*
X01814Y00509*
X01814Y00509*
X01814Y00509*
X01814Y00509*
X01814Y00509*
X01814Y00509*
X01813Y00509*
X01813Y00509*
X01813Y00509*
X01813Y00509*
X01813Y00509*
X01813Y00509*
X01813Y00509*
X01813Y00509*
X01812*
X01812Y00509*
X01812Y00509*
X01812Y00509*
X01812Y00509*
X01812Y00509*
X01812Y00509*
X01812Y00509*
X01811Y00509*
X01811Y00509*
X01811Y00509*
X01811Y00509*
X01811Y00509*
X01811Y00509*
X01811Y00508*
X01811Y00508*
X01811Y00508*
X01811Y00508*
X01811Y00508*
X01811Y00508*
X01811Y00508*
X01811Y00508*
X01811Y00507*
X05522Y02578D02*
D01*
X05523Y02566*
X05524Y02554*
X05526Y02541*
X05529Y02529*
X05533Y02518*
X05538Y02506*
X05543Y02495*
X05549Y02484*
X05556Y02474*
X05564Y02464*
X05572Y02455*
X05581Y02447*
X0559Y02439*
X056Y02431*
X05611Y02425*
X05622Y02419*
X05633Y02414*
X05645Y0241*
X05657Y02406*
X05669Y02404*
X05681Y02402*
X05693Y02401*
X05706*
X05718Y02402*
X0573Y02404*
X05742Y02406*
X05754Y0241*
X05766Y02414*
X05777Y02419*
X05788Y02425*
X05799Y02431*
X05809Y02439*
X05818Y02447*
X05827Y02455*
X05835Y02464*
X05843Y02474*
X0585Y02484*
X05856Y02495*
X05861Y02506*
X05866Y02518*
X0587Y02529*
X05873Y02541*
X05875Y02554*
X05876Y02566*
X05877Y02578*
D01*
X05876Y02591*
X05875Y02603*
X05873Y02615*
X0587Y02627*
X05866Y02639*
X05861Y0265*
X05856Y02661*
X0585Y02672*
X05843Y02682*
X05835Y02692*
X05827Y02701*
X05818Y0271*
X05809Y02718*
X05799Y02725*
X05788Y02732*
X05777Y02737*
X05766Y02743*
X05754Y02747*
X05742Y0275*
X0573Y02753*
X05718Y02754*
X05706Y02755*
X05693*
X05681Y02754*
X05669Y02753*
X05657Y0275*
X05645Y02747*
X05633Y02743*
X05622Y02737*
X05611Y02732*
X056Y02725*
X0559Y02718*
X05581Y0271*
X05572Y02701*
X05564Y02692*
X05556Y02682*
X05549Y02672*
X05543Y02661*
X05538Y0265*
X05533Y02639*
X05529Y02627*
X05526Y02615*
X05524Y02603*
X05523Y02591*
X05522Y02578*
X05767Y0206D02*
D01*
X05763Y02054*
X05759Y02048*
X05756Y02041*
X05753Y02035*
X05751Y02028*
X05749Y02021*
X05748Y02014*
X05747Y02007*
X05747Y01999*
X05747Y01992*
X05748Y01985*
X05749Y01978*
X05751Y01971*
X05753Y01964*
X05756Y01958*
X05759Y01951*
X05763Y01945*
X05767Y01939*
X05771Y01934*
X05776Y01928*
X05781Y01923*
X05786Y01919*
X05792Y01915*
X05798Y01911*
X05805Y01907*
X05811Y01905*
X05818Y01902*
X05825Y019*
X05832Y01899*
X05839Y01898*
X05846Y01897*
X05853*
X0586Y01898*
X05867Y01899*
X05874Y019*
X05881Y01902*
X05888Y01905*
X05894Y01907*
X05901Y01911*
X05907Y01915*
X05913Y01919*
X05918Y01923*
X05923Y01928*
X05928Y01934*
X05932Y01939*
X05936Y01945*
X0594Y01951*
X05943Y01958*
X05946Y01964*
X05948Y01971*
X0595Y01978*
X05951Y01985*
X05952Y01992*
X05952Y02*
X05952Y02007*
X05951Y02014*
X0595Y02021*
X05948Y02028*
X05946Y02035*
X05943Y02041*
X0594Y02048*
X05936Y02054*
X05932Y0206*
X05932Y0206*
X00211Y03707D02*
D01*
X00211Y03707*
X00211Y03707*
X00211Y03707*
X00211Y03707*
X00211Y03707*
X00211Y03707*
X00211Y03706*
X00211Y03706*
X00211Y03706*
X00211Y03706*
X00211Y03706*
X00211Y03706*
X00211Y03706*
X00211Y03706*
X00212Y03706*
X00212Y03706*
X00212Y03706*
X00212Y03706*
X00212Y03705*
X00212Y03705*
X00212Y03705*
X00212Y03705*
X00213*
X00213Y03705*
X00213Y03705*
X00213Y03705*
X00213Y03706*
X00213Y03706*
X00213Y03706*
X00213Y03706*
X00214Y03706*
X00214Y03706*
X00214Y03706*
X00214Y03706*
X00214Y03706*
X00214Y03706*
X00214Y03706*
X00214Y03706*
X00214Y03707*
X00214Y03707*
X00214Y03707*
X00214Y03707*
X00214Y03707*
X00214Y03707*
X00214Y03707*
D01*
X00214Y03708*
X00214Y03708*
X00214Y03708*
X00214Y03708*
X00214Y03708*
X00214Y03708*
X00214Y03708*
X00214Y03708*
X00214Y03709*
X00214Y03709*
X00214Y03709*
X00214Y03709*
X00214Y03709*
X00214Y03709*
X00213Y03709*
X00213Y03709*
X00213Y03709*
X00213Y03709*
X00213Y03709*
X00213Y03709*
X00213Y03709*
X00213Y03709*
X00212*
X00212Y03709*
X00212Y03709*
X00212Y03709*
X00212Y03709*
X00212Y03709*
X00212Y03709*
X00212Y03709*
X00211Y03709*
X00211Y03709*
X00211Y03709*
X00211Y03709*
X00211Y03709*
X00211Y03709*
X00211Y03708*
X00211Y03708*
X00211Y03708*
X00211Y03708*
X00211Y03708*
X00211Y03708*
X00211Y03708*
X00211Y03708*
X00211Y03707*
X00501Y03318D02*
Y03437D01*
X00147D02*
X00501D01*
X00147Y03318D02*
Y03437D01*
Y02854D02*
Y02925D01*
Y02854D02*
X00501D01*
Y02925*
X05463Y00748D02*
X0564D01*
X05463D02*
Y00847D01*
X05759Y00748D02*
X05936D01*
Y00847*
Y00945D02*
Y0126D01*
X05542Y01339D02*
X05857D01*
X05463Y00945D02*
Y0126D01*
X03867Y0086D02*
X04032D01*
X05767Y0206D02*
X05932D01*
X00452Y01899D02*
X00925D01*
X00452Y00199D02*
X00925D01*
X01038Y00301D02*
Y01797D01*
X00338Y00301D02*
Y01797D01*
G54D11*
X00615Y03244D02*
D01*
X00615Y03244*
X00615Y03244*
X00614Y03244*
X00614Y03243*
X00614Y03243*
X00614Y03243*
X00613Y03243*
X00613Y03243*
X00613Y03243*
X00613Y03243*
X00613Y03242*
X00612Y03242*
X00612Y03242*
X00612Y03242*
X00612Y03242*
X00612Y03241*
X00612Y03241*
X00612Y03241*
X00611Y03241*
X00611Y0324*
X00611Y0324*
X00611Y0324*
Y0324*
X00611Y03239*
X00611Y03239*
X00611Y03239*
X00612Y03238*
X00612Y03238*
X00612Y03238*
X00612Y03238*
X00612Y03237*
X00612Y03237*
X00612Y03237*
X00613Y03237*
X00613Y03237*
X00613Y03236*
X00613Y03236*
X00613Y03236*
X00614Y03236*
X00614Y03236*
X00614Y03236*
X00614Y03236*
X00615Y03236*
X00615Y03236*
X00615Y03236*
D01*
X00616Y03236*
X00616Y03236*
X00616Y03236*
X00616Y03236*
X00617Y03236*
X00617Y03236*
X00617Y03236*
X00617Y03236*
X00618Y03236*
X00618Y03237*
X00618Y03237*
X00618Y03237*
X00618Y03237*
X00619Y03237*
X00619Y03238*
X00619Y03238*
X00619Y03238*
X00619Y03238*
X00619Y03239*
X00619Y03239*
X00619Y03239*
X00619Y0324*
Y0324*
X00619Y0324*
X00619Y0324*
X00619Y03241*
X00619Y03241*
X00619Y03241*
X00619Y03241*
X00619Y03242*
X00619Y03242*
X00618Y03242*
X00618Y03242*
X00618Y03242*
X00618Y03243*
X00618Y03243*
X00617Y03243*
X00617Y03243*
X00617Y03243*
X00617Y03243*
X00616Y03243*
X00616Y03244*
X00616Y03244*
X00616Y03244*
X00615Y03244*
X00847Y024D02*
D01*
X00847Y02417*
X00845Y02434*
X00842Y02451*
X00838Y02467*
X00832Y02484*
X00826Y025*
X00818Y02515*
X0081Y0253*
X008Y02544*
X0079Y02558*
X00778Y0257*
X00766Y02582*
X00753Y02593*
X00739Y02603*
X00724Y02613*
X00709Y02621*
X00693Y02628*
X00677Y02634*
X00661Y02638*
X00644Y02642*
X00627Y02644*
X0061Y02645*
X00592*
X00575Y02644*
X00558Y02642*
X00542Y02638*
X00525Y02634*
X00509Y02628*
X00493Y02621*
X00478Y02613*
X00463Y02603*
X0045Y02593*
X00436Y02582*
X00424Y0257*
X00413Y02558*
X00402Y02544*
X00392Y0253*
X00384Y02515*
X00376Y025*
X0037Y02484*
X00365Y02467*
X0036Y02451*
X00357Y02434*
X00356Y02417*
X00355Y024*
X00356Y02382*
X00357Y02365*
X0036Y02348*
X00365Y02332*
X0037Y02315*
X00376Y02299*
X00384Y02284*
X00392Y02269*
X00402Y02255*
X00413Y02241*
X00424Y02229*
X00436Y02217*
X0045Y02206*
X00463Y02196*
X00478Y02186*
X00493Y02178*
X00509Y02171*
X00525Y02165*
X00542Y02161*
X00558Y02157*
X00575Y02155*
X00592Y02154*
X0061*
X00627Y02155*
X00644Y02157*
X00661Y02161*
X00677Y02165*
X00693Y02171*
X00709Y02178*
X00724Y02186*
X00739Y02196*
X00753Y02206*
X00766Y02217*
X00778Y02229*
X0079Y02241*
X008Y02255*
X0081Y02269*
X00818Y02284*
X00826Y02299*
X00832Y02315*
X00838Y02332*
X00842Y02348*
X00845Y02365*
X00847Y02382*
X00847Y024*
X0165Y00614D02*
D01*
X01642Y00613*
X01634Y00613*
X01626Y00611*
X01618Y00609*
X0161Y00607*
X01603Y00604*
X01596Y006*
X01589Y00596*
X01582Y00592*
X01576Y00587*
X0157Y00582*
X01565Y00576*
X0156Y0057*
X01555Y00563*
X01551Y00557*
X01547Y0055*
X01544Y00542*
X01541Y00535*
X01539Y00527*
X01537Y00519*
X01536Y00511*
X01535Y00503*
Y00496*
X01536Y00488*
X01537Y0048*
X01539Y00472*
X01541Y00464*
X01544Y00457*
X01547Y00449*
X01551Y00442*
X01555Y00436*
X0156Y00429*
X01565Y00423*
X0157Y00417*
X01576Y00412*
X01582Y00407*
X01589Y00403*
X01596Y00399*
X01603Y00395*
X0161Y00392*
X01618Y0039*
X01626Y00388*
X01634Y00386*
X01642Y00386*
X0165Y00385*
D01*
X01657Y00386*
X01665Y00386*
X01673Y00388*
X01681Y0039*
X01689Y00392*
X01696Y00395*
X01703Y00399*
X0171Y00403*
X01717Y00407*
X01723Y00412*
X01729Y00417*
X01734Y00423*
X01739Y00429*
X01744Y00436*
X01748Y00442*
X01752Y00449*
X01755Y00457*
X01758Y00464*
X0176Y00472*
X01762Y0048*
X01763Y00488*
X01764Y00496*
Y00503*
X01763Y00511*
X01762Y00519*
X0176Y00527*
X01758Y00535*
X01755Y00542*
X01752Y0055*
X01748Y00557*
X01744Y00563*
X01739Y0057*
X01734Y00576*
X01729Y00582*
X01723Y00587*
X01717Y00592*
X0171Y00596*
X01703Y006*
X01696Y00604*
X01689Y00607*
X01681Y00609*
X01673Y00611*
X01665Y00613*
X01657Y00613*
X0165Y00614*
X0195D02*
D01*
X01942Y00613*
X01934Y00613*
X01926Y00611*
X01918Y00609*
X0191Y00607*
X01903Y00604*
X01896Y006*
X01889Y00596*
X01882Y00592*
X01876Y00587*
X0187Y00582*
X01865Y00576*
X0186Y0057*
X01855Y00563*
X01851Y00557*
X01847Y0055*
X01844Y00542*
X01841Y00535*
X01839Y00527*
X01837Y00519*
X01836Y00511*
X01835Y00503*
Y00496*
X01836Y00488*
X01837Y0048*
X01839Y00472*
X01841Y00464*
X01844Y00457*
X01847Y00449*
X01851Y00442*
X01855Y00436*
X0186Y00429*
X01865Y00423*
X0187Y00417*
X01876Y00412*
X01882Y00407*
X01889Y00403*
X01896Y00399*
X01903Y00395*
X0191Y00392*
X01918Y0039*
X01926Y00388*
X01934Y00386*
X01942Y00386*
X0195Y00385*
D01*
X01957Y00386*
X01965Y00386*
X01973Y00388*
X01981Y0039*
X01989Y00392*
X01996Y00395*
X02003Y00399*
X0201Y00403*
X02017Y00407*
X02023Y00412*
X02029Y00417*
X02034Y00423*
X02039Y00429*
X02044Y00436*
X02048Y00442*
X02052Y00449*
X02055Y00457*
X02058Y00464*
X0206Y00472*
X02062Y0048*
X02063Y00488*
X02064Y00496*
Y00503*
X02063Y00511*
X02062Y00519*
X0206Y00527*
X02058Y00535*
X02055Y00542*
X02052Y0055*
X02048Y00557*
X02044Y00563*
X02039Y0057*
X02034Y00576*
X02029Y00582*
X02023Y00587*
X02017Y00592*
X0201Y00596*
X02003Y006*
X01996Y00604*
X01989Y00607*
X01981Y00609*
X01973Y00611*
X01965Y00613*
X01957Y00613*
X0195Y00614*
X01244Y036D02*
D01*
X01243Y03617*
X01242Y03634*
X01239Y03651*
X01234Y03667*
X01229Y03684*
X01223Y037*
X01215Y03715*
X01207Y0373*
X01197Y03744*
X01186Y03758*
X01175Y0377*
X01163Y03782*
X01149Y03793*
X01136Y03803*
X01121Y03813*
X01106Y03821*
X0109Y03828*
X01074Y03834*
X01057Y03838*
X01041Y03842*
X01024Y03844*
X01007Y03845*
X00989*
X00972Y03844*
X00955Y03842*
X00938Y03838*
X00922Y03834*
X00906Y03828*
X0089Y03821*
X00875Y03813*
X0086Y03803*
X00846Y03793*
X00833Y03782*
X00821Y0377*
X00809Y03758*
X00799Y03744*
X00789Y0373*
X00781Y03715*
X00773Y037*
X00767Y03684*
X00761Y03667*
X00757Y03651*
X00754Y03634*
X00752Y03617*
X00752Y036*
X00752Y03582*
X00754Y03565*
X00757Y03548*
X00761Y03532*
X00767Y03515*
X00773Y03499*
X00781Y03484*
X00789Y03469*
X00799Y03455*
X00809Y03441*
X00821Y03429*
X00833Y03417*
X00846Y03406*
X0086Y03396*
X00875Y03386*
X0089Y03378*
X00906Y03371*
X00922Y03365*
X00938Y03361*
X00955Y03357*
X00972Y03355*
X00989Y03354*
X01007*
X01024Y03355*
X01041Y03357*
X01057Y03361*
X01074Y03365*
X0109Y03371*
X01106Y03378*
X01121Y03386*
X01136Y03396*
X01149Y03406*
X01163Y03417*
X01175Y03429*
X01186Y03441*
X01197Y03455*
X01207Y03469*
X01215Y03484*
X01223Y03499*
X01229Y03515*
X01234Y03532*
X01239Y03548*
X01242Y03565*
X01243Y03582*
X01244Y036*
X0035Y03814D02*
D01*
X00342Y03813*
X00334Y03813*
X00326Y03811*
X00318Y03809*
X0031Y03807*
X00303Y03804*
X00296Y038*
X00289Y03796*
X00282Y03792*
X00276Y03787*
X0027Y03782*
X00265Y03776*
X0026Y0377*
X00255Y03763*
X00251Y03757*
X00247Y0375*
X00244Y03742*
X00241Y03735*
X00239Y03727*
X00237Y03719*
X00236Y03711*
X00235Y03703*
Y03696*
X00236Y03688*
X00237Y0368*
X00239Y03672*
X00241Y03664*
X00244Y03657*
X00247Y03649*
X00251Y03642*
X00255Y03636*
X0026Y03629*
X00265Y03623*
X0027Y03617*
X00276Y03612*
X00282Y03607*
X00289Y03603*
X00296Y03599*
X00303Y03595*
X0031Y03592*
X00318Y0359*
X00326Y03588*
X00334Y03586*
X00342Y03586*
X0035Y03585*
D01*
X00357Y03586*
X00365Y03586*
X00373Y03588*
X00381Y0359*
X00389Y03592*
X00396Y03595*
X00403Y03599*
X0041Y03603*
X00417Y03607*
X00423Y03612*
X00429Y03617*
X00434Y03623*
X00439Y03629*
X00444Y03636*
X00448Y03642*
X00452Y03649*
X00455Y03657*
X00458Y03664*
X0046Y03672*
X00462Y0368*
X00463Y03688*
X00464Y03696*
Y03703*
X00463Y03711*
X00462Y03719*
X0046Y03727*
X00458Y03735*
X00455Y03742*
X00452Y0375*
X00448Y03757*
X00444Y03763*
X00439Y0377*
X00434Y03776*
X00429Y03782*
X00423Y03787*
X00417Y03792*
X0041Y03796*
X00403Y038*
X00396Y03804*
X00389Y03807*
X00381Y03809*
X00373Y03811*
X00365Y03813*
X00357Y03813*
X0035Y03814*
X04794Y03557D02*
D01*
X04794Y03557*
X04794Y03558*
X04794Y03558*
X04793Y03558*
X04793Y03558*
X04793Y03559*
X04793Y03559*
X04793Y03559*
X04793Y03559*
X04793Y0356*
X04792Y0356*
X04792Y0356*
X04792Y0356*
X04792Y0356*
X04792Y0356*
X04791Y03561*
X04791Y03561*
X04791Y03561*
X04791Y03561*
X0479Y03561*
X0479Y03561*
X0479Y03561*
X0479*
X04789Y03561*
X04789Y03561*
X04789Y03561*
X04788Y03561*
X04788Y03561*
X04788Y03561*
X04788Y0356*
X04787Y0356*
X04787Y0356*
X04787Y0356*
X04787Y0356*
X04787Y0356*
X04786Y03559*
X04786Y03559*
X04786Y03559*
X04786Y03559*
X04786Y03558*
X04786Y03558*
X04786Y03558*
X04786Y03558*
X04786Y03557*
X04786Y03557*
X04786Y03557*
X04786Y03556*
X04786Y03556*
X04786Y03556*
X04786Y03556*
X04786Y03555*
X04786Y03555*
X04786Y03555*
X04786Y03555*
X04787Y03554*
X04787Y03554*
X04787Y03554*
X04787Y03554*
X04787Y03554*
X04788Y03554*
X04788Y03553*
X04788Y03553*
X04788Y03553*
X04789Y03553*
X04789Y03553*
X04789Y03553*
X0479Y03553*
X0479*
X0479Y03553*
X0479Y03553*
X04791Y03553*
X04791Y03553*
X04791Y03553*
X04791Y03553*
X04792Y03554*
X04792Y03554*
X04792Y03554*
X04792Y03554*
X04792Y03554*
X04793Y03554*
X04793Y03555*
X04793Y03555*
X04793Y03555*
X04793Y03555*
X04793Y03556*
X04793Y03556*
X04794Y03556*
X04794Y03556*
X04794Y03557*
X04794Y03557*
X02047Y036D02*
D01*
X02047Y03617*
X02045Y03634*
X02042Y03651*
X02038Y03667*
X02032Y03684*
X02026Y037*
X02018Y03715*
X0201Y0373*
X02Y03744*
X0199Y03758*
X01978Y0377*
X01966Y03782*
X01953Y03793*
X01939Y03803*
X01924Y03813*
X01909Y03821*
X01893Y03828*
X01877Y03834*
X01861Y03838*
X01844Y03842*
X01827Y03844*
X0181Y03845*
X01792*
X01775Y03844*
X01758Y03842*
X01742Y03838*
X01725Y03834*
X01709Y03828*
X01693Y03821*
X01678Y03813*
X01663Y03803*
X0165Y03793*
X01636Y03782*
X01624Y0377*
X01613Y03758*
X01602Y03744*
X01592Y0373*
X01584Y03715*
X01576Y037*
X0157Y03684*
X01565Y03667*
X0156Y03651*
X01557Y03634*
X01556Y03617*
X01555Y036*
X01556Y03582*
X01557Y03565*
X0156Y03548*
X01565Y03532*
X0157Y03515*
X01576Y03499*
X01584Y03484*
X01592Y03469*
X01602Y03455*
X01613Y03441*
X01624Y03429*
X01636Y03417*
X0165Y03406*
X01663Y03396*
X01678Y03386*
X01693Y03378*
X01709Y03371*
X01725Y03365*
X01742Y03361*
X01758Y03357*
X01775Y03355*
X01792Y03354*
X0181*
X01827Y03355*
X01844Y03357*
X01861Y03361*
X01877Y03365*
X01893Y03371*
X01909Y03378*
X01924Y03386*
X01939Y03396*
X01953Y03406*
X01966Y03417*
X01978Y03429*
X0199Y03441*
X02Y03455*
X0201Y03469*
X02018Y03484*
X02026Y03499*
X02032Y03515*
X02038Y03532*
X02042Y03548*
X02045Y03565*
X02047Y03582*
X02047Y036*
X05298Y01142D02*
Y02874D01*
X01991D02*
X05298D01*
X01991Y01142D02*
Y02874D01*
Y01142D02*
X05298D01*
X03352Y03188D02*
Y03594D01*
X03447*
Y03188D02*
Y03594D01*
X03352Y03188D02*
X03447D01*
X034Y03036D02*
Y03188D01*
Y03594D02*
Y03747D01*
X01175Y0271D02*
X01361D01*
X01175Y0229D02*
Y0271D01*
Y0229D02*
X013D01*
X03052Y00288D02*
Y00694D01*
X03147*
Y00288D02*
Y00694D01*
X03052Y00288D02*
X03147D01*
X031Y00136D02*
Y00288D01*
Y00694D02*
Y00847D01*
X02752Y00288D02*
Y00694D01*
X02847*
Y00288D02*
Y00694D01*
X02752Y00288D02*
X02847D01*
X028Y00136D02*
Y00288D01*
Y00694D02*
Y00847D01*
X05136Y00097D02*
Y00499D01*
X05411*
X05402Y00522D02*
X05411Y00499D01*
X05402Y00522D02*
X05449D01*
X05439Y00499D02*
X05449Y00522D01*
X05439Y00499D02*
X05463D01*
Y00097D02*
Y00499D01*
X05243Y00097D02*
X05463D01*
X05243D02*
X05252Y00074D01*
X05205D02*
X05252D01*
X05205D02*
X05215Y00097D01*
X05136D02*
X05215D01*
X04736D02*
Y00499D01*
X05011*
X05002Y00522D02*
X05011Y00499D01*
X05002Y00522D02*
X05049D01*
X05039Y00499D02*
X05049Y00522D01*
X05039Y00499D02*
X05063D01*
Y00097D02*
Y00499D01*
X04843Y00097D02*
X05063D01*
X04843D02*
X04852Y00074D01*
X04805D02*
X04852D01*
X04805D02*
X04815Y00097D01*
X04736D02*
X04815D01*
X04336D02*
Y00499D01*
X04611*
X04602Y00522D02*
X04611Y00499D01*
X04602Y00522D02*
X04649D01*
X04639Y00499D02*
X04649Y00522D01*
X04639Y00499D02*
X04663D01*
Y00097D02*
Y00499D01*
X04443Y00097D02*
X04663D01*
X04443D02*
X04452Y00074D01*
X04405D02*
X04452D01*
X04405D02*
X04415Y00097D01*
X04336D02*
X04415D01*
X02452Y00288D02*
Y00694D01*
X02547*
Y00288D02*
Y00694D01*
X02452Y00288D02*
X02547D01*
X025Y00136D02*
Y00288D01*
Y00694D02*
Y00847D01*
X03352Y00288D02*
Y00694D01*
X03447*
Y00288D02*
Y00694D01*
X03352Y00288D02*
X03447D01*
X034Y00136D02*
Y00288D01*
Y00694D02*
Y00847D01*
X02752Y03188D02*
Y03594D01*
X02847*
Y03188D02*
Y03594D01*
X02752Y03188D02*
X02847D01*
X028Y03036D02*
Y03188D01*
Y03594D02*
Y03747D01*
X03752Y03188D02*
Y03594D01*
X03847*
Y03188D02*
Y03594D01*
X03752Y03188D02*
X03847D01*
X038Y03036D02*
Y03188D01*
Y03594D02*
Y03747D01*
X03052Y03188D02*
Y03594D01*
X03147*
Y03188D02*
Y03594D01*
X03052Y03188D02*
X03147D01*
X031Y03036D02*
Y03188D01*
Y03594D02*
Y03747D01*
X02263Y03601D02*
X02323D01*
X02337Y03403D02*
Y03596D01*
Y03403D02*
X02462D01*
Y03596*
X02337D02*
X02462D01*
X01575Y02609D02*
X01761D01*
X01575Y02189D02*
Y02609D01*
Y02189D02*
X017D01*
X00833Y03092D02*
X00966D01*
Y02907D02*
Y03092D01*
X00833Y02907D02*
X00966D01*
X00833D02*
Y03092D01*
X00746Y0308D02*
X00819D01*
G54D12*
X05443Y034D02*
D01*
X05442Y03423*
X0544Y03446*
X05436Y03468*
X0543Y03491*
X05423Y03513*
X05415Y03534*
X05404Y03555*
X05393Y03575*
X0538Y03594*
X05366Y03612*
X0535Y03629*
X05334Y03645*
X05316Y0366*
X05297Y03674*
X05278Y03686*
X05257Y03697*
X05236Y03706*
X05215Y03714*
X05192Y0372*
X0517Y03725*
X05147Y03728*
X05124Y0373*
X05101*
X05078Y03728*
X05055Y03725*
X05032Y0372*
X0501Y03714*
X04989Y03706*
X04968Y03697*
X04947Y03686*
X04928Y03674*
X04909Y0366*
X04891Y03645*
X04875Y03629*
X04859Y03612*
X04845Y03594*
X04832Y03575*
X0482Y03555*
X0481Y03534*
X04802Y03513*
X04795Y03491*
X04789Y03468*
X04785Y03446*
X04783Y03423*
X04782Y034*
X04783Y03376*
X04785Y03353*
X04789Y03331*
X04795Y03308*
X04802Y03286*
X0481Y03265*
X0482Y03244*
X04832Y03224*
X04845Y03205*
X04859Y03187*
X04875Y0317*
X04891Y03154*
X04909Y03139*
X04928Y03125*
X04947Y03113*
X04968Y03102*
X04989Y03093*
X0501Y03085*
X05032Y03079*
X05055Y03074*
X05078Y03071*
X05101Y03069*
X05124*
X05147Y03071*
X0517Y03074*
X05192Y03079*
X05215Y03085*
X05236Y03093*
X05257Y03102*
X05278Y03113*
X05297Y03125*
X05316Y03139*
X05334Y03154*
X0535Y0317*
X05366Y03187*
X0538Y03205*
X05393Y03224*
X05404Y03244*
X05415Y03265*
X05423Y03286*
X0543Y03308*
X05436Y03331*
X0544Y03353*
X05442Y03376*
X05443Y034*
G54D13*
X0196Y03005D02*
Y02946D01*
X01989*
X01999Y02955*
Y02995*
X01989Y03005*
X0196*
X02059Y02995D02*
X02049Y03005D01*
X02029*
X02019Y02995*
Y02985*
X02029Y02975*
X02049*
X02059Y02965*
Y02955*
X02049Y02946*
X02029*
X02019Y02955*
X02079Y02946D02*
X02099D01*
X02089*
Y03005*
X02079Y02995*
X03048Y00947D02*
Y01006D01*
X03077*
X03087Y00996*
Y00976*
X03077Y00966*
X03048*
X03067D02*
X03087Y00947D01*
X03107Y00996D02*
X03117Y01006D01*
X03137*
X03147Y00996*
Y00986*
X03137Y00976*
X03147Y00966*
Y00956*
X03137Y00947*
X03117*
X03107Y00956*
Y00966*
X03117Y00976*
X03107Y00986*
Y00996*
X03117Y00976D02*
X03137D01*
X02748Y00947D02*
Y01006D01*
X02777*
X02787Y00996*
Y00976*
X02777Y00966*
X02748*
X02767D02*
X02787Y00947D01*
X02807D02*
X02827D01*
X02817*
Y01006*
X02807Y00996*
X02857D02*
X02867Y01006D01*
X02887*
X02897Y00996*
Y00956*
X02887Y00947*
X02867*
X02857Y00956*
Y00996*
X02448Y00947D02*
Y01006D01*
X02477*
X02487Y00996*
Y00976*
X02477Y00966*
X02448*
X02467D02*
X02487Y00947D01*
X02507Y01006D02*
X02547D01*
Y00996*
X02507Y00956*
Y00947*
X03893Y00905D02*
Y00945D01*
X03883Y00955*
X03863*
X03854Y00945*
Y00905*
X03863Y00896*
X03883*
X03873Y00915D02*
X03893Y00896D01*
X03883D02*
X03893Y00905D01*
X03913Y00945D02*
X03923Y00955D01*
X03943*
X03953Y00945*
Y00935*
X03933Y00915*
Y00905D02*
Y00896D01*
X01504Y00745D02*
Y00686D01*
X01543*
X01603Y00745D02*
X01563D01*
Y00686*
X01603*
X01563Y00715D02*
X01583D01*
X01623Y00745D02*
Y00686D01*
X01653*
X01663Y00695*
Y00735*
X01653Y00745*
X01623*
X01683Y00735D02*
X01693Y00745D01*
X01713*
X01723Y00735*
Y00725*
X01713Y00715*
X01703*
X01713*
X01723Y00705*
Y00695*
X01713Y00686*
X01693*
X01683Y00695*
X01804Y00745D02*
Y00686D01*
X01843*
X01903Y00745D02*
X01863D01*
Y00686*
X01903*
X01863Y00715D02*
X01883D01*
X01923Y00745D02*
Y00686D01*
X01953*
X01963Y00695*
Y00735*
X01953Y00745*
X01923*
X02023Y00686D02*
X01983D01*
X02023Y00725*
Y00735*
X02013Y00745*
X01993*
X01983Y00735*
X05428Y01475D02*
Y01416D01*
Y01435*
X05467Y01475*
X05437Y01445*
X05467Y01416*
X05487Y01465D02*
X05497Y01475D01*
X05517*
X05527Y01465*
Y01455*
X05507Y01435*
Y01425D02*
Y01416D01*
X05178Y0062D02*
X05158D01*
X05168*
Y0057*
X05158Y00561*
X05148*
X05139Y0057*
X05198Y0061D02*
X05208Y0062D01*
X05228*
X05238Y0061*
Y006*
X05228Y0059*
X05218*
X05228*
X05238Y0058*
Y0057*
X05228Y00561*
X05208*
X05198Y0057*
X04778Y0062D02*
X04758D01*
X04768*
Y0057*
X04758Y00561*
X04748*
X04739Y0057*
X04838Y00561D02*
X04798D01*
X04838Y006*
Y0061*
X04828Y0062*
X04808*
X04798Y0061*
X04378Y0062D02*
X04358D01*
X04368*
Y0057*
X04358Y00561*
X04348*
X04339Y0057*
X04428Y00561D02*
Y0062D01*
X04398Y0059*
X04438*
X01175Y0281D02*
X01194D01*
X01184*
Y02751*
X01175*
X01194*
X01264Y028D02*
X01254Y0281D01*
X01234*
X01224Y028*
Y0276*
X01234Y02751*
X01254*
X01264Y0276*
X01284Y028D02*
X01294Y0281D01*
X01314*
X01324Y028*
Y0279*
X01304Y0277*
Y0276D02*
Y02751D01*
X00384Y02746D02*
X00374Y02756D01*
X00354*
X00345Y02746*
Y02706*
X00354Y02697*
X00374*
X00384Y02706*
X00404Y02746D02*
X00414Y02756D01*
X00434*
X00444Y02746*
Y02736*
X00434Y02726*
X00424*
X00434*
X00444Y02716*
Y02706*
X00434Y02697*
X00414*
X00404Y02706*
X03348Y00947D02*
Y01006D01*
X03377*
X03387Y00996*
Y00976*
X03377Y00966*
X03348*
X03367D02*
X03387Y00947D01*
X03447Y01006D02*
X03427Y00996D01*
X03407Y00976*
Y00956*
X03417Y00947*
X03437*
X03447Y00956*
Y00966*
X03437Y00976*
X03407*
X03748Y03847D02*
Y03906D01*
X03777*
X03787Y03896*
Y03876*
X03777Y03866*
X03748*
X03767D02*
X03787Y03847D01*
X03847Y03906D02*
X03807D01*
Y03876*
X03827Y03886*
X03837*
X03847Y03876*
Y03856*
X03837Y03847*
X03817*
X03807Y03856*
X02748Y03847D02*
Y03906D01*
X02777*
X02787Y03896*
Y03876*
X02777Y03866*
X02748*
X02767D02*
X02787Y03847D01*
X02837D02*
Y03906D01*
X02807Y03876*
X02847*
X05793Y02105D02*
Y02145D01*
X05783Y02155*
X05763*
X05754Y02145*
Y02105*
X05763Y02096*
X05783*
X05773Y02115D02*
X05793Y02096D01*
X05783D02*
X05793Y02105D01*
X05843Y02096D02*
Y02155D01*
X05813Y02125*
X05853*
X05511Y02867D02*
Y02808D01*
X0555*
X0561Y02857D02*
X056Y02867D01*
X0558*
X0557Y02857*
Y02847*
X0558Y02837*
X056*
X0561Y02827*
Y02817*
X056Y02808*
X0558*
X0557Y02817*
X0563Y02808D02*
X0565D01*
X0564*
Y02867*
X0563Y02857*
X00204Y03945D02*
Y03886D01*
X00243*
X00303Y03945D02*
X00263D01*
Y03886*
X00303*
X00263Y03915D02*
X00283D01*
X00323Y03945D02*
Y03886D01*
X00353*
X00363Y03895*
Y03935*
X00353Y03945*
X00323*
X00383Y03886D02*
X00403D01*
X00393*
Y03945*
X00383Y03935*
X04781Y03772D02*
Y03811D01*
X048Y03831*
X0482Y03811*
Y03772*
Y03801*
X04781*
X0484Y03821D02*
X0485Y03831D01*
X0487*
X0488Y03821*
Y03811*
X0487Y03801*
X0486*
X0487*
X0488Y03791*
Y03781*
X0487Y03772*
X0485*
X0484Y03781*
X03348Y03847D02*
Y03906D01*
X03377*
X03387Y03896*
Y03876*
X03377Y03866*
X03348*
X03367D02*
X03387Y03847D01*
X03407Y03896D02*
X03417Y03906D01*
X03437*
X03447Y03896*
Y03886*
X03437Y03876*
X03427*
X03437*
X03447Y03866*
Y03856*
X03437Y03847*
X03417*
X03407Y03856*
X03048Y03847D02*
Y03906D01*
X03077*
X03087Y03896*
Y03876*
X03077Y03866*
X03048*
X03067D02*
X03087Y03847D01*
X03147D02*
X03107D01*
X03147Y03886*
Y03896*
X03137Y03906*
X03117*
X03107Y03896*
X0006Y03567D02*
X0004D01*
X0005*
Y03517*
X0004Y03508*
X0003*
X00021Y03517*
X0008Y03508D02*
X001D01*
X0009*
Y03567*
X0008Y03557*
X02262Y03698D02*
X02281D01*
X02271*
Y03639*
X02262*
X02281*
X02351Y03688D02*
X02341Y03698D01*
X02321*
X02311Y03688*
Y03648*
X02321Y03639*
X02341*
X02351Y03648*
X02371Y03688D02*
X02381Y03698D01*
X02401*
X02411Y03688*
Y03678*
X02401Y03668*
X02391*
X02401*
X02411Y03658*
Y03648*
X02401Y03639*
X02381*
X02371Y03648*
X00308Y02033D02*
X00327D01*
X00317*
Y01974*
X00308*
X00327*
X00397Y02023D02*
X00387Y02033D01*
X00367*
X00357Y02023*
Y01983*
X00367Y01974*
X00387*
X00397Y01983*
X00457Y01974D02*
X00417D01*
X00457Y02013*
Y02023*
X00447Y02033*
X00427*
X00417Y02023*
X01575Y0271D02*
X01594D01*
X01584*
Y02651*
X01575*
X01594*
X01664Y027D02*
X01654Y0271D01*
X01634*
X01624Y027*
Y0266*
X01634Y02651*
X01654*
X01664Y0266*
X01684Y02651D02*
X01704D01*
X01694*
Y0271*
X01684Y027*
X00781Y03946D02*
X00771Y03956D01*
X00751*
X00742Y03946*
Y03906*
X00751Y03897*
X00771*
X00781Y03906*
X00841Y03897D02*
X00801D01*
X00841Y03936*
Y03946*
X00831Y03956*
X00811*
X00801Y03946*
X01584D02*
X01574Y03956D01*
X01554*
X01545Y03946*
Y03906*
X01554Y03897*
X01574*
X01584Y03906*
X01604Y03897D02*
X01624D01*
X01614*
Y03956*
X01604Y03946*
X00746Y03196D02*
Y03137D01*
X00775*
X00785Y03146*
Y03156*
X00775Y03166*
X00746*
X00775*
X00785Y03176*
Y03186*
X00775Y03196*
X00746*
X00805Y03137D02*
Y03196D01*
X00835*
X00845Y03186*
Y03166*
X00835Y03156*
X00805*
X00825D02*
X00845Y03137D01*
X00865D02*
X00885D01*
X00875*
Y03196*
X00865Y03186*
M02*