%FSTAX23Y23*%
%MOIN*%
%SFA1B1*%

%IPPOS*%
%ADD13C,0.010000*%
%ADD42C,0.196850*%
%ADD43C,0.098425*%
%ADD44C,0.059055*%
%ADD45C,0.060000*%
%ADD46C,0.045275*%
%ADD47C,0.037401*%
%ADD48C,0.033465*%
%ADD49R,0.080905X0.080905*%
%ADD50C,0.080905*%
%ADD51C,0.088582*%
%ADD52R,0.050197X0.050197*%
%ADD53C,0.050197*%
%ADD54C,0.056693*%
%ADD55R,0.059055X0.059055*%
%ADD56C,0.076771*%
%ADD57C,0.055118*%
%ADD58C,0.070866*%
%ADD59R,0.070866X0.070866*%
%ADD60R,0.065551X0.065551*%
%ADD61C,0.065551*%
%ADD62C,0.097441*%
%ADD63C,0.050000*%
%ADD64C,0.006000*%
%LNpcb1-1*%
%LPD*%
G36*
X01773Y02795D02*
X01689Y0271D01*
X01685Y02705*
X01684Y027*
Y02615*
X01348*
X01347Y02619*
X0134Y0263*
X0133Y0264*
X01319Y02647*
X01306Y0265*
X01293*
X0128Y02647*
X01269Y0264*
X01259Y0263*
X01252Y02619*
X01249Y02606*
Y02593*
X01252Y0258*
X01259Y02569*
X01269Y02559*
X0128Y02552*
X01281Y02552*
Y02547*
X0128Y02547*
X01269Y0254*
X01259Y02531*
X01252Y02519*
X01251Y02515*
X01068*
Y028*
X01771*
X01773Y02795*
G37*
G36*
X01037Y02515D02*
X00872D01*
Y028*
X01037*
Y02515*
G37*
G36*
X01684Y02547D02*
X0168Y02546D01*
X01669Y02539*
X01659Y0253*
X01652Y02519*
X01651Y02514*
X01602*
X01599Y02515*
X01348*
X01347Y02519*
X0134Y02531*
X0133Y0254*
X01319Y02547*
X01318Y02547*
Y02552*
X01319Y02552*
X0133Y02559*
X0134Y02569*
X01347Y0258*
X01348Y02584*
X01684*
Y02547*
G37*
G36*
X01037Y02369D02*
X00726D01*
X00723Y02374*
X00728Y02378*
X00732Y02386*
X00735Y02395*
Y02404*
X00733Y02411*
X00806Y02484*
X00842*
X00842Y02481*
X00846Y02476*
X00851Y02472*
X00857Y02471*
X00862Y02472*
X00867Y02476*
X00876Y02484*
X01037*
Y02369*
G37*
G36*
X00841Y02515D02*
X008D01*
X00794Y02514*
X00789Y02511*
X00711Y02433*
X00704Y02435*
X00695*
X00686Y02432*
X00679Y02428*
X00674Y0243*
Y028*
X00841*
Y02515*
G37*
G36*
X01252Y0248D02*
X01259Y02469D01*
X01269Y02459*
X01275Y02455*
X01274Y0245*
X01249*
Y02371*
X01247Y02369*
X01068*
Y02484*
X01251*
X01252Y0248*
G37*
G36*
X00643Y0238D02*
X00644Y02374D01*
X00648Y02369*
X00674Y02343*
X00679Y02339*
X00684Y02338*
Y02246*
X0068Y02244*
X00538Y02386*
Y02435*
X00489*
X00415Y02509*
Y028*
X00643*
Y0238*
G37*
G36*
X01655Y02423D02*
X01652Y02419D01*
X01649Y02406*
Y02393*
X01652Y0238*
X01659Y02368*
X01669Y02359*
X01675Y02355*
X01674Y0235*
X01649*
Y02249*
X01736*
X01738Y02244*
X01709Y02215*
X01068*
Y02338*
X01253*
X01259Y02339*
X01264Y02343*
X01271Y02349*
X0135*
Y02429*
X01405Y02484*
X01593*
X01655Y02423*
G37*
G36*
X01037Y02215D02*
X00715D01*
Y02338*
X01037*
Y02215*
G37*
G36*
Y0189D02*
X01032Y01888D01*
X01026Y01895*
X01016Y01901*
X01005Y01905*
X00994Y01908*
X00983*
X00971Y01905*
X00961Y01901*
X00951Y01895*
X00943Y01886*
X00936Y01877*
X00932Y01866*
X0093Y01855*
Y01843*
X00932Y01832*
X00936Y01821*
X00943Y01811*
X00951Y01803*
X00961Y01797*
X0097Y01793*
X0097Y01788*
X0097Y01788*
X00962Y01783*
X00954Y01775*
X00948Y01765*
X00946Y01755*
Y01743*
X00948Y01732*
X00949Y01731*
X0091Y01692*
X00906Y01687*
X00905Y01681*
Y01526*
Y00721*
Y0064*
X00906Y00634*
X0091Y00629*
X00951Y00588*
X00956Y00584*
X00956Y00584*
X00958Y00579*
X00954Y00575*
X00948Y00565*
X00946Y00555*
Y00543*
X00948Y00532*
X00954Y00523*
X00962Y00515*
X00972Y00509*
X00983Y00506*
X00994*
X01005Y00509*
X01015Y00515*
X01023Y00523*
X01028Y00532*
X01031Y00543*
Y00555*
X01028Y00565*
X01023Y00575*
X01022Y00576*
X01024Y00581*
X01026Y00581*
X01028Y00577*
X01035Y0057*
X01043Y00566*
X01052Y00564*
X01061*
X0107Y00566*
X01078Y0057*
X01085Y00577*
X01088Y00583*
X01167*
X01169Y00579*
X01036Y00446*
X01031Y00448*
Y00455*
X01028Y00465*
X01023Y00475*
X01015Y00483*
X01005Y00489*
X00994Y00492*
X00983*
X00972Y00489*
X00962Y00483*
X00954Y00475*
X00948Y00465*
X00946Y00455*
Y00443*
X00948Y00432*
X00954Y00423*
X00958Y00419*
X00956Y00414*
X00421*
X00419Y00419*
X00423Y00423*
X00428Y00432*
X00431Y00443*
Y00455*
X00428Y00465*
X00428Y00467*
X0071Y00749*
X00714Y00754*
X00715Y0076*
Y02184*
X01037*
Y0189*
G37*
G36*
Y01808D02*
Y01619D01*
X01006Y01588*
X01005Y01589*
X00994Y01592*
X00983*
X00972Y01589*
X00962Y01583*
X0096Y01581*
X00956Y01583*
Y01595*
X00971Y0161*
X00972Y01609*
X00983Y01606*
X00994*
X01005Y01609*
X01015Y01615*
X01023Y01623*
X01028Y01632*
X01031Y01643*
Y01655*
X01028Y01665*
X01023Y01675*
X01015Y01683*
X01005Y01689*
X00994Y01692*
X00983*
X00972Y01689*
X00962Y01683*
X00954Y01675*
X00948Y01665*
X00946Y01655*
Y01643*
X00948Y01632*
X00949Y01631*
X0094Y01623*
X00936Y01625*
Y01675*
X00971Y0171*
X00972Y01709*
X00983Y01706*
X00994*
X01005Y01709*
X01015Y01715*
X01023Y01723*
X01028Y01732*
X01031Y01743*
Y01755*
X01028Y01765*
X01023Y01775*
X01015Y01783*
X01007Y01788*
X01007Y01788*
X01007Y01793*
X01016Y01797*
X01026Y01803*
X01032Y0181*
X01037Y01808*
G37*
G36*
X00684Y02196D02*
Y00766D01*
X00406Y00488*
X00405Y00489*
X00394Y00492*
X00383*
X00372Y00489*
X00362Y00483*
X0036Y00481*
X00356Y00483*
Y00514*
X0036Y00516*
X00362Y00515*
X00372Y00509*
X00383Y00506*
X00394*
X00405Y00509*
X00415Y00515*
X00423Y00523*
X00428Y00532*
X00431Y00543*
Y00555*
X00428Y00565*
X00423Y00575*
X00415Y00583*
X00405Y00589*
X00394Y00592*
X00383*
X00372Y00589*
X00362Y00583*
X0036Y00581*
X00356Y00583*
Y00595*
X00371Y0061*
X00372Y00609*
X00383Y00606*
X00394*
X00405Y00609*
X00415Y00615*
X00423Y00623*
X00428Y00632*
X00431Y00643*
Y00655*
X00428Y00665*
X00423Y00675*
X00415Y00683*
X00405Y00689*
X00394Y00692*
X00383*
X00372Y00689*
X00362Y00683*
X00354Y00675*
X00348Y00665*
X00346Y00655*
Y00643*
X00348Y00632*
X00349Y00631*
X0034Y00623*
X00336Y00625*
Y01813*
X00341Y01814*
X00343Y01811*
X00351Y01803*
X00361Y01797*
X00361Y01797*
X0036Y01792*
X00346*
Y01706*
X00431*
Y01792*
X00417*
X00416Y01797*
X00416Y01797*
X00426Y01803*
X00434Y01811*
X0044Y01821*
X00445Y01832*
X00447Y01843*
Y01855*
X00445Y01866*
X0044Y01877*
X00434Y01886*
X00426Y01895*
X00416Y01901*
X00405Y01905*
X00394Y01908*
X00383*
X00371Y01905*
X00361Y01901*
X00351Y01895*
X00343Y01886*
X00341Y01883*
X00336Y01885*
Y02211*
X00489Y02364*
X00516*
X00684Y02196*
G37*
G36*
X018Y02771D02*
Y01611D01*
X01104*
X01098Y0161*
X01093Y01606*
X01036Y01549*
X01031Y01551*
Y01555*
X01028Y01565*
X01028Y01567*
X01063Y01602*
X01067Y01607*
X01068Y01613*
Y02184*
X01716*
X01721Y02185*
X01726Y02189*
X01766Y02229*
X0177Y02234*
X01771Y0224*
Y02575*
X0177Y0258*
X01766Y02585*
X01741Y0261*
X01736Y02614*
X01731Y02615*
X01715*
Y02693*
X01795Y02773*
X018Y02771*
G37*
G36*
Y01496D02*
X01032D01*
X0103Y015*
X0111Y0158*
X018*
Y01496*
G37*
G36*
Y01264D02*
X01029D01*
X01028Y01265*
X01023Y01275*
X01015Y01283*
X01005Y01289*
X00994Y01292*
X00983*
X00972Y01289*
X00962Y01283*
X0096Y01281*
X00956Y01283*
Y01314*
X0096Y01316*
X00962Y01315*
X00972Y01309*
X00983Y01306*
X00994*
X01005Y01309*
X01015Y01315*
X01023Y01323*
X01028Y01332*
X01031Y01343*
Y01355*
X01028Y01365*
X01023Y01375*
X01015Y01383*
X01005Y01389*
X00994Y01392*
X00983*
X00972Y01389*
X00971Y01388*
X00956Y01403*
Y01414*
X0096Y01416*
X00962Y01415*
X00972Y01409*
X00983Y01406*
X00994*
X01005Y01409*
X01015Y01415*
X01023Y01423*
X01028Y01432*
X01031Y01443*
Y01455*
X01029Y01461*
X01032Y01465*
X018*
Y01264*
G37*
G36*
X01252Y01229D02*
X01138Y01115D01*
X01021*
X01019Y01119*
X01023Y01123*
X01028Y01132*
X01031Y01143*
Y01155*
X01028Y01165*
X01023Y01175*
X01015Y01183*
X01005Y01189*
X00994Y01192*
X00983*
X00972Y01189*
X00962Y01183*
X0096Y01181*
X00956Y01183*
Y01214*
X0096Y01216*
X00962Y01215*
X00972Y01209*
X00983Y01206*
X00994*
X01005Y01209*
X01015Y01215*
X01023Y01223*
X01028Y01232*
X01029Y01234*
X0125*
X01252Y01229*
G37*
G36*
X018Y01159D02*
Y01064D01*
X01704*
X01702Y01069*
X01795Y01161*
X018Y01159*
G37*
G36*
X01799Y01208D02*
X01655Y01064D01*
X01029*
X01028Y01065*
X01023Y01075*
X01019Y01079*
X01021Y01084*
X01145*
X0115Y01085*
X01155Y01089*
X0128Y01213*
X01797*
X01799Y01208*
G37*
G36*
X018Y01012D02*
X01652D01*
X0165Y01016*
X01667Y01034*
X018*
Y01012*
G37*
G36*
X01619Y01029D02*
X01504Y00914D01*
X01021*
X01019Y00919*
X01023Y00923*
X01028Y00932*
X01031Y00943*
Y00955*
X01028Y00965*
X01023Y00975*
X01015Y00983*
X01005Y00989*
X00994Y00992*
X00983*
X00972Y00989*
X00971Y00988*
X00956Y01003*
Y01014*
X0096Y01016*
X00962Y01015*
X00972Y01009*
X00983Y01006*
X00994*
X01005Y01009*
X01015Y01015*
X01023Y01023*
X01028Y01032*
X01029Y01034*
X01617*
X01619Y01029*
G37*
G36*
X018Y00864D02*
X01504D01*
X01502Y00869*
X01517Y00883*
X01543*
X01548Y00884*
X01553Y00888*
X01647Y00981*
X018*
Y00864*
G37*
G36*
X01469Y00879D02*
X01455Y00864D01*
X01029*
X01028Y00865*
X01023Y00875*
X0102Y00878*
X01022Y00883*
X01467*
X01469Y00879*
G37*
G36*
X018Y00814D02*
X01454D01*
X01452Y00818*
X01467Y00834*
X018*
Y00814*
G37*
G36*
X01419Y00829D02*
X01404Y00814D01*
X01088*
X01085Y0082*
X01078Y00827*
X01074Y00829*
X01076Y00834*
X01417*
X01419Y00829*
G37*
G36*
X01369Y00779D02*
X01306Y00716D01*
X01022*
X0102Y0072*
X01023Y00723*
X01028Y00732*
X01031Y00743*
Y00755*
X01028Y00765*
X01023Y00775*
X01022Y00776*
X01024Y00781*
X01026Y00781*
X01028Y00777*
X01035Y0077*
X01043Y00766*
X01052Y00764*
X01061*
X0107Y00766*
X01078Y0077*
X01085Y00777*
X01088Y00783*
X01367*
X01369Y00779*
G37*
G36*
X018Y00717D02*
X01799Y00716D01*
X01356*
X01354Y0072*
X01417Y00783*
X018*
Y00717*
G37*
G36*
X01271Y00681D02*
X01204Y00614D01*
X01088*
X01085Y0062*
X01078Y00627*
X0107Y00631*
X01061Y00634*
X01052*
X01043Y00631*
X01035Y00627*
X01028Y0062*
X01025Y00615*
X01021Y00615*
X01019Y00619*
X01023Y00623*
X01028Y00632*
X01031Y00643*
Y00655*
X01028Y00665*
X01023Y00675*
X01018Y0068*
X0102Y00685*
X01269*
X01271Y00681*
G37*
G36*
X018Y00678D02*
Y00439D01*
X01782*
X01736Y00484*
X01739Y00494*
Y00505*
X01736Y00515*
X01731Y00524*
X01724Y00531*
X01715Y00536*
X01705Y00539*
X01694*
X01684Y00536*
X01611Y00609*
X01606Y00613*
X01601Y00614*
X01254*
X01252Y00618*
X01319Y00685*
X01792*
X018Y00678*
G37*
G36*
X01663Y00515D02*
X0166Y00505D01*
Y00494*
X01663Y00484*
X01668Y00475*
X01675Y00468*
X01684Y00463*
X01694Y0046*
X01705*
X01715Y00463*
X01734Y00443*
X01732Y00439*
X01651*
X01634Y00455*
X01636Y0046*
X01639*
Y00532*
X01644Y00534*
X01663Y00515*
G37*
G36*
X00384Y02503D02*
X00385Y02497D01*
X00389Y02492*
X00468Y02413*
Y02386*
X0031Y02228*
X00306Y02223*
X00305Y02217*
Y004*
X00306Y00394*
X0031Y00389*
X00331Y00368*
X00336Y00364*
X00342Y00363*
X00344*
X00347Y00359*
X00346Y00355*
Y00343*
X00348Y00332*
X00354Y00323*
X00362Y00315*
X0037Y0031*
X0037Y0031*
X0037Y00305*
X00361Y00301*
X00351Y00295*
X00343Y00286*
X00336Y00277*
X00332Y00266*
X0033Y00255*
Y00243*
X00332Y00232*
X00336Y00221*
X00343Y00211*
X00351Y00203*
X00361Y00197*
X00371Y00192*
X00383Y0019*
X00394*
X00405Y00192*
X00416Y00197*
X00426Y00203*
X00434Y00211*
X0044Y00221*
X00445Y00232*
X00447Y00243*
Y00255*
X00445Y00266*
X0044Y00277*
X00434Y00286*
X00426Y00295*
X00416Y00301*
X00407Y00305*
X00407Y0031*
X00407Y0031*
X00415Y00315*
X00423Y00323*
X00428Y00332*
X00431Y00343*
Y00355*
X00428Y00365*
X00423Y00375*
X0042Y00378*
X00422Y00383*
X00946*
Y00306*
X0096*
X00961Y00301*
X00961Y00301*
X00951Y00295*
X00943Y00286*
X00936Y00277*
X00932Y00266*
X0093Y00255*
Y00243*
X00932Y00232*
X00936Y00221*
X00943Y00211*
X00951Y00203*
X00961Y00197*
X00971Y00192*
X00983Y0019*
X00994*
X01005Y00192*
X01016Y00197*
X01026Y00203*
X01034Y00211*
X0104Y00221*
X01045Y00232*
X01047Y00243*
Y00255*
X01045Y00266*
X0104Y00277*
X01034Y00286*
X01026Y00295*
X01016Y00301*
X01016Y00301*
X01017Y00306*
X01031*
Y00392*
X01029Y00396*
X01217Y00583*
X01594*
X01634Y00544*
X01632Y00539*
X0156*
Y0046*
X01587*
X01589Y00458*
X01634Y00413*
X01639Y00409*
X01645Y00408*
X018*
Y001*
X001*
Y028*
X00384*
Y02503*
G37*
%LNpcb1-2*%
%LPC*%
G36*
X00394Y01692D02*
X00383D01*
X00372Y01689*
X00362Y01683*
X00354Y01675*
X00348Y01665*
X00346Y01655*
Y01643*
X00348Y01632*
X00354Y01623*
X00362Y01615*
X00372Y01609*
X00383Y01606*
X00394*
X00405Y01609*
X00415Y01615*
X00423Y01623*
X00428Y01632*
X00431Y01643*
Y01655*
X00428Y01665*
X00423Y01675*
X00415Y01683*
X00405Y01689*
X00394Y01692*
G37*
G36*
Y01592D02*
X00383D01*
X00372Y01589*
X00362Y01583*
X00354Y01575*
X00348Y01565*
X00346Y01555*
Y01543*
X00348Y01532*
X00354Y01523*
X00362Y01515*
X00372Y01509*
X00383Y01506*
X00394*
X00405Y01509*
X00415Y01515*
X00423Y01523*
X00428Y01532*
X00431Y01543*
Y01555*
X00428Y01565*
X00423Y01575*
X00415Y01583*
X00405Y01589*
X00394Y01592*
G37*
G36*
Y01492D02*
X00383D01*
X00372Y01489*
X00362Y01483*
X00354Y01475*
X00348Y01465*
X00346Y01455*
Y01443*
X00348Y01432*
X00354Y01423*
X00362Y01415*
X00372Y01409*
X00383Y01406*
X00394*
X00405Y01409*
X00415Y01415*
X00423Y01423*
X00428Y01432*
X00431Y01443*
Y01455*
X00428Y01465*
X00423Y01475*
X00415Y01483*
X00405Y01489*
X00394Y01492*
G37*
G36*
Y01392D02*
X00383D01*
X00372Y01389*
X00362Y01383*
X00354Y01375*
X00348Y01365*
X00346Y01355*
Y01343*
X00348Y01332*
X00354Y01323*
X00362Y01315*
X00372Y01309*
X00383Y01306*
X00394*
X00405Y01309*
X00415Y01315*
X00423Y01323*
X00428Y01332*
X00431Y01343*
Y01355*
X00428Y01365*
X00423Y01375*
X00415Y01383*
X00405Y01389*
X00394Y01392*
G37*
G36*
Y01292D02*
X00383D01*
X00372Y01289*
X00362Y01283*
X00354Y01275*
X00348Y01265*
X00346Y01255*
Y01243*
X00348Y01232*
X00354Y01223*
X00362Y01215*
X00372Y01209*
X00383Y01206*
X00394*
X00405Y01209*
X00415Y01215*
X00423Y01223*
X00428Y01232*
X00431Y01243*
Y01255*
X00428Y01265*
X00423Y01275*
X00415Y01283*
X00405Y01289*
X00394Y01292*
G37*
G36*
Y01192D02*
X00383D01*
X00372Y01189*
X00362Y01183*
X00354Y01175*
X00348Y01165*
X00346Y01155*
Y01143*
X00348Y01132*
X00354Y01123*
X00362Y01115*
X00372Y01109*
X00383Y01106*
X00394*
X00405Y01109*
X00415Y01115*
X00423Y01123*
X00428Y01132*
X00431Y01143*
Y01155*
X00428Y01165*
X00423Y01175*
X00415Y01183*
X00405Y01189*
X00394Y01192*
G37*
G36*
Y01092D02*
X00383D01*
X00372Y01089*
X00362Y01083*
X00354Y01075*
X00348Y01065*
X00346Y01055*
Y01043*
X00348Y01032*
X00354Y01023*
X00362Y01015*
X00372Y01009*
X00383Y01006*
X00394*
X00405Y01009*
X00415Y01015*
X00423Y01023*
X00428Y01032*
X00431Y01043*
Y01055*
X00428Y01065*
X00423Y01075*
X00415Y01083*
X00405Y01089*
X00394Y01092*
G37*
G36*
Y00992D02*
X00383D01*
X00372Y00989*
X00362Y00983*
X00354Y00975*
X00348Y00965*
X00346Y00955*
Y00943*
X00348Y00932*
X00354Y00923*
X00362Y00915*
X00372Y00909*
X00383Y00906*
X00394*
X00405Y00909*
X00415Y00915*
X00423Y00923*
X00428Y00932*
X00431Y00943*
Y00955*
X00428Y00965*
X00423Y00975*
X00415Y00983*
X00405Y00989*
X00394Y00992*
G37*
G36*
Y00892D02*
X00383D01*
X00372Y00889*
X00362Y00883*
X00354Y00875*
X00348Y00865*
X00346Y00855*
Y00843*
X00348Y00832*
X00354Y00823*
X00362Y00815*
X00372Y00809*
X00383Y00806*
X00394*
X00405Y00809*
X00415Y00815*
X00423Y00823*
X00428Y00832*
X00431Y00843*
Y00855*
X00428Y00865*
X00423Y00875*
X00415Y00883*
X00405Y00889*
X00394Y00892*
G37*
G36*
Y00792D02*
X00383D01*
X00372Y00789*
X00362Y00783*
X00354Y00775*
X00348Y00765*
X00346Y00755*
Y00743*
X00348Y00732*
X00354Y00723*
X00362Y00715*
X00372Y00709*
X00383Y00706*
X00394*
X00405Y00709*
X00415Y00715*
X00423Y00723*
X00428Y00732*
X00431Y00743*
Y00755*
X00428Y00765*
X00423Y00775*
X00415Y00783*
X00405Y00789*
X00394Y00792*
G37*
%LNpcb1-3*%
%LPD*%
G54D13*
X04796Y01933D02*
Y02796D01*
X03825Y00962D02*
X04796Y01933D01*
X02106Y00962D02*
X03825D01*
X039Y008D02*
X04941Y01841D01*
Y02958*
X04993Y01693D02*
X05593D01*
X034Y001D02*
X04993Y01693D01*
X01641Y00997D02*
X03702D01*
X01543Y00899D02*
X01641Y00997D01*
X00965Y00899D02*
X01543D01*
X038Y03783D02*
X04646D01*
X038Y03D02*
X049D01*
X04941Y02958*
X0579Y0039D02*
Y01194D01*
X05896Y013*
X05546Y00146D02*
X0579Y0039D01*
X04877Y00146D02*
X05546D01*
X04824Y002D02*
X04877Y00146D01*
X045Y002D02*
X04824D01*
X054Y013D02*
X05503D01*
X053Y012D02*
X054Y013D01*
X053Y006D02*
Y012D01*
X049Y002D02*
X053Y006D01*
Y002D02*
X057Y006D01*
Y008*
X04646Y03783D02*
X04663Y038D01*
X055*
X056Y037*
Y032D02*
Y037D01*
X055Y031D02*
X056Y032D01*
X0498Y03267D02*
X05148Y031D01*
X055*
X057Y02657D02*
X059Y02457D01*
Y02D02*
Y02457D01*
X04Y036D02*
X051D01*
X053Y034*
X036Y032D02*
X04Y036D01*
X034Y03D02*
X036Y032D01*
Y038*
X035Y039D02*
X036Y038D01*
X02916Y039D02*
X035D01*
X028Y03783D02*
X02916Y039D01*
X032Y03583D02*
X034Y03783D01*
X032Y031D02*
Y03583D01*
X031Y03D02*
X032Y031D01*
X015Y03D02*
X028D01*
X014Y031D02*
X015Y03D01*
X014Y031D02*
Y036D01*
X012Y038D02*
X014Y036D01*
X003Y037D02*
X004Y038D01*
X012*
X019Y036D02*
X02083Y03783D01*
X028*
X04925Y034D02*
X05112D01*
X05245Y03267*
X034Y03D02*
X038D01*
X03798Y02998D02*
X038Y03D01*
X03798Y02797D02*
Y02998D01*
X03796Y02796D02*
X03798Y02797D01*
X031Y001D02*
X03563Y00563D01*
X03763*
X0395Y0075*
X05593Y01693D02*
X0585Y0195D01*
X007Y024D02*
X008Y025D01*
X013*
X01599*
X017Y02399*
X025Y001D02*
X028D01*
X035Y008*
X039*
X01253Y02354D02*
X013Y024D01*
X00685Y02354D02*
X01253D01*
X00659Y0238D02*
X00685Y02354D01*
X00659Y0238D02*
Y03359D01*
X009Y036*
X00988Y01449D02*
X0102Y01481D01*
X02613*
X03865Y02732*
Y02764*
X03896Y02796*
X00941Y01397D02*
X00988Y01349D01*
X00941Y01397D02*
Y01475D01*
X00965Y01499*
X01007*
X01104Y01596*
X02669*
X03842Y02769*
Y02824*
X03865Y02847*
X03945*
X03996Y02796*
X00988Y01249D02*
X01864D01*
X02024Y01409*
X02848*
X04096Y02657*
Y02796*
X00988Y01049D02*
X03048D01*
X04596Y02597*
Y02796*
X00941Y00997D02*
X00988Y00949D01*
X00941Y00997D02*
Y0108D01*
X00961Y011*
X01145*
X01274Y01229*
X02714*
X03211Y01726*
X03445*
X04445Y02726*
Y02821*
X04465Y02841*
X04651*
X04696Y02796*
X00988Y00849D02*
X01993D01*
X02106Y00962*
X00941Y00797D02*
X00988Y00749D01*
X00941Y00797D02*
Y00875D01*
X00965Y00899*
X03702Y00997D02*
X04643Y01938D01*
Y02621*
X04742Y0272*
Y0282*
X04763Y02841*
X04851*
X04896Y02796*
X00944Y01549D02*
X00988D01*
X00921Y01526D02*
X00944Y01549D01*
X00921Y00721D02*
Y01526D01*
Y00721D02*
X00941Y00701D01*
X01799*
X02Y005*
X01057Y00799D02*
X03315D01*
X034Y00883*
X00503Y024D02*
X00703Y022D01*
X01716*
X01756Y0224*
Y02575*
X01731Y026D02*
X01756Y02575D01*
X013Y026D02*
X01731D01*
X01057Y00599D02*
X01601D01*
X017Y005*
X016Y00469D02*
Y005D01*
Y00469D02*
X01645Y00424D01*
X03062*
X03438Y008*
Y009*
X03414Y00924D02*
X03438Y009D01*
X0284Y00924D02*
X03414D01*
X028Y00883D02*
X0284Y00924D01*
X0626Y04D02*
X0628Y0394D01*
X0624D02*
X0626Y04D01*
X0624Y0006D02*
X0626Y0D01*
X0628Y0006*
X0626Y02194D02*
Y04D01*
Y0D02*
Y01773D01*
X0625Y04D02*
X063D01*
X062Y0D02*
X0627D01*
X0Y-0016D02*
X0006Y-0014D01*
X0Y-0016D02*
X0006Y-0018D01*
X0594D02*
X06Y-0016D01*
X0594Y-0014D02*
X06Y-0016D01*
X0D02*
X02773D01*
X03194D02*
X06D01*
X0Y-002D02*
Y-0015D01*
X06Y-0017D02*
Y-001D01*
G54D42*
X02148Y02717D03*
X0514D03*
G54D43*
X02089Y013D03*
X052D03*
G54D44*
X03496Y02796D03*
X03396D03*
X04896D03*
X04796D03*
X04696D03*
X04596D03*
X04496D03*
X04396D03*
X04296D03*
X04196D03*
X04096D03*
X03996D03*
X03896D03*
X03796D03*
X03696D03*
X03596D03*
X017Y005D03*
X02D03*
X004Y037D03*
G54D45*
X059Y001D03*
X001D03*
Y039D03*
X059D03*
G54D46*
X034Y03D03*
Y03783D03*
X031Y001D03*
Y00883D03*
X028Y001D03*
Y00883D03*
X025Y001D03*
Y00883D03*
X034Y001D03*
Y00883D03*
X028Y03D03*
Y03783D03*
X038Y03D03*
Y03783D03*
X031Y03D03*
Y03783D03*
G54D47*
X00324Y03062D03*
G54D48*
X00324Y0324D03*
G54D49*
X013Y024D03*
X017Y023D03*
G54D50*
X013Y025D03*
Y026D03*
X017Y02399D03*
Y02499D03*
G54D51*
X05896Y00898D03*
Y013D03*
X05503D03*
Y00898D03*
X057Y008D03*
G54D52*
X00503Y024D03*
X009Y036D03*
X01703D03*
G54D53*
X007Y024D03*
X01096Y036D03*
X019D03*
G54D54*
X04Y008D03*
X0395Y0075D03*
X039Y008D03*
X059Y02D03*
X0585Y0195D03*
X058Y02D03*
G54D55*
X016Y005D03*
X019D03*
X003Y037D03*
G54D56*
X053Y002D03*
X049D03*
X045D03*
G54D57*
X057Y02657D03*
Y025D03*
G54D58*
X04925Y034D03*
X053D03*
X05245Y03267D03*
X0498D03*
X05245Y03532D03*
G54D59*
X0498Y03532D03*
G54D60*
X00388Y01749D03*
X00988Y00349D03*
G54D61*
X00388Y01649D03*
Y01549D03*
Y01449D03*
Y01349D03*
Y01249D03*
Y01149D03*
Y01049D03*
Y00949D03*
Y00849D03*
Y00749D03*
Y00649D03*
Y00549D03*
Y00449D03*
Y00349D03*
X00988Y00449D03*
Y00549D03*
Y00649D03*
Y00749D03*
Y00849D03*
Y00949D03*
Y01049D03*
Y01149D03*
Y01249D03*
Y01349D03*
Y01449D03*
Y01549D03*
Y01649D03*
Y01749D03*
G54D62*
X00388Y01849D03*
X00988D03*
Y00249D03*
X00388D03*
G54D63*
X02235Y03475D03*
X01057Y00799D03*
Y00599D03*
G54D64*
X06295Y01819D02*
X06236D01*
X06266Y01789*
Y01829*
X06246Y01849D02*
X06236Y01859D01*
Y01879*
X06246Y01889*
X06285*
X06295Y01879*
Y01859*
X06285Y01849*
X06246*
Y01909D02*
X06236Y01919D01*
Y01939*
X06246Y01949*
X06285*
X06295Y01939*
Y01919*
X06285Y01909*
X06246*
Y01969D02*
X06236Y01979D01*
Y01998*
X06246Y02008*
X06285*
X06295Y01998*
Y01979*
X06285Y01969*
X06246*
X06295Y02028D02*
X06285D01*
Y02038*
X06295*
Y02028*
X06246Y02078D02*
X06236Y02088D01*
Y02108*
X06246Y02118*
X06285*
X06295Y02108*
Y02088*
X06285Y02078*
X06246*
Y02138D02*
X06236Y02148D01*
Y02168*
X06246Y02178*
X06285*
X06295Y02168*
Y02148*
X06285Y02138*
X06246*
X02829Y-00136D02*
X02809Y-00146D01*
X02789Y-00166*
Y-00185*
X02799Y-00195*
X02819*
X02829Y-00185*
Y-00175*
X02819Y-00166*
X02789*
X02849Y-00146D02*
X02859Y-00136D01*
X02879*
X02889Y-00146*
Y-00185*
X02879Y-00195*
X02859*
X02849Y-00185*
Y-00146*
X02909D02*
X02919Y-00136D01*
X02939*
X02949Y-00146*
Y-00185*
X02939Y-00195*
X02919*
X02909Y-00185*
Y-00146*
X02969D02*
X02979Y-00136D01*
X02998*
X03008Y-00146*
Y-00185*
X02998Y-00195*
X02979*
X02969Y-00185*
Y-00146*
X03028Y-00195D02*
Y-00185D01*
X03038*
Y-00195*
X03028*
X03078Y-00146D02*
X03088Y-00136D01*
X03108*
X03118Y-00146*
Y-00185*
X03108Y-00195*
X03088*
X03078Y-00185*
Y-00146*
X03138D02*
X03148Y-00136D01*
X03168*
X03178Y-00146*
Y-00185*
X03168Y-00195*
X03148*
X03138Y-00185*
Y-00146*
M02*